<svg version="1.1" viewBox="0.0 0.0 762.4488188976378 377.1417322834646" fill="none" stroke="none" stroke-linecap="square" stroke-miterlimit="10" xmlns:xlink="http://www.w3.org/1999/xlink" xmlns="http://www.w3.org/2000/svg"><clipPath id="p.0"><path d="m0 0l762.4488 0l0 377.14172l-762.4488 0l0 -377.14172z" clip-rule="nonzero"/></clipPath><g clip-path="url(#p.0)"><path fill="#000000" fill-opacity="0.0" d="m0 0l762.4488 0l0 377.14172l-762.4488 0z" fill-rule="evenodd"/><path fill="#b7b7b7" d="m14.854578 80.05681l0 -13.535393l0 0c0 -7.475395 15.924679 -13.535397 35.568764 -13.535397c19.644093 0 35.568768 6.0600014 35.568768 13.535397l0 13.535393z" fill-rule="evenodd"/><path stroke="#ffffff" stroke-width="8.0" stroke-linejoin="round" stroke-linecap="butt" d="m14.854578 80.05681l0 -13.535393l0 0c0 -7.475395 15.924679 -13.535397 35.568764 -13.535397c19.644093 0 35.568768 6.0600014 35.568768 13.535397l0 13.535393z" fill-rule="evenodd"/><path fill="#b7b7b7" d="m27.023619 34.615616l0 0c0 -12.4931755 10.476416 -22.620895 23.399725 -22.620895l0 0c6.2059937 0 12.157806 2.3832664 16.546108 6.6255074c4.388298 4.242241 6.8536224 9.9959545 6.8536224 15.995388l0 0c0 12.4931755 -10.476418 22.6209 -23.39973 22.6209l0 0c-12.923309 0 -23.399725 -10.127724 -23.399725 -22.6209z" fill-rule="evenodd"/><path stroke="#ffffff" stroke-width="8.0" stroke-linejoin="round" stroke-linecap="butt" d="m27.023619 34.615616l0 0c0 -12.4931755 10.476416 -22.620895 23.399725 -22.620895l0 0c6.2059937 0 12.157806 2.3832664 16.546108 6.6255074c4.388298 4.242241 6.8536224 9.9959545 6.8536224 15.995388l0 0c0 12.4931755 -10.476418 22.6209 -23.39973 22.6209l0 0c-12.923309 0 -23.399725 -10.127724 -23.399725 -22.6209z" fill-rule="evenodd"/><path fill="#b7b7b7" d="m74.891464 86.636826l0 -13.5354l0 0c0 -7.4753876 15.924683 -13.535393 35.56877 -13.535393c19.644089 0 35.56877 6.060005 35.56877 13.535393l0 13.5354z" fill-rule="evenodd"/><path stroke="#ffffff" stroke-width="8.0" stroke-linejoin="round" stroke-linecap="butt" d="m74.891464 86.636826l0 -13.5354l0 0c0 -7.4753876 15.924683 -13.535393 35.56877 -13.535393c19.644089 0 35.56877 6.060005 35.56877 13.535393l0 13.5354z" fill-rule="evenodd"/><path fill="#b7b7b7" d="m87.06051 41.19563l0 0c0 -12.4931755 10.47641 -22.620895 23.399727 -22.620895l0 0c6.2059937 0 12.157806 2.3832664 16.546104 6.6255074c4.388298 4.242241 6.853615 9.995956 6.853615 15.995388l0 0c0 12.493179 -10.47641 22.6209 -23.39972 22.6209l0 0c-12.923317 0 -23.399727 -10.12772 -23.399727 -22.6209z" fill-rule="evenodd"/><path stroke="#ffffff" stroke-width="8.0" stroke-linejoin="round" stroke-linecap="butt" d="m87.06051 41.19563l0 0c0 -12.4931755 10.47641 -22.620895 23.399727 -22.620895l0 0c6.2059937 0 12.157806 2.3832664 16.546104 6.6255074c4.388298 4.242241 6.853615 9.995956 6.853615 15.995388l0 0c0 12.493179 -10.47641 22.6209 -23.39972 22.6209l0 0c-12.923317 0 -23.399727 -10.12772 -23.399727 -22.6209z" fill-rule="evenodd"/><path fill="#b7b7b7" d="m43.89107 114.93277l0 -13.535393l0 0c0 -7.475395 15.924679 -13.5354 35.568768 -13.5354c19.644089 0 35.568764 6.060005 35.568764 13.5354l0 13.535393z" fill-rule="evenodd"/><path stroke="#ffffff" stroke-width="8.0" stroke-linejoin="round" stroke-linecap="butt" d="m43.89107 114.93277l0 -13.535393l0 0c0 -7.475395 15.924679 -13.5354 35.568768 -13.5354c19.644089 0 35.568764 6.060005 35.568764 13.5354l0 13.535393z" fill-rule="evenodd"/><path fill="#b7b7b7" d="m56.060112 69.49158l0 0c0 -12.4931755 10.476418 -22.620895 23.399727 -22.620895l0 0c6.2059937 0 12.157806 2.3832664 16.546104 6.6255074c4.388298 4.242241 6.8536224 9.995953 6.8536224 15.995388l0 0c0 12.493179 -10.476418 22.620895 -23.399727 22.620895l0 0c-12.923309 0 -23.399727 -10.127716 -23.399727 -22.620895z" fill-rule="evenodd"/><path stroke="#ffffff" stroke-width="8.0" stroke-linejoin="round" stroke-linecap="butt" d="m56.060112 69.49158l0 0c0 -12.4931755 10.476418 -22.620895 23.399727 -22.620895l0 0c6.2059937 0 12.157806 2.3832664 16.546104 6.6255074c4.388298 4.242241 6.8536224 9.995953 6.8536224 15.995388l0 0c0 12.493179 -10.476418 22.620895 -23.399727 22.620895l0 0c-12.923309 0 -23.399727 -10.127716 -23.399727 -22.620895z" fill-rule="evenodd"/><path fill="#000000" fill-opacity="0.0" d="m0.0010700787 115.438324l160.8819 0l0 42.173218l-160.8819 0z" fill-rule="evenodd"/><path fill="#000000" d="m30.188112 141.04082q0 -2.96875 1.328125 -4.71875q1.3281269 -1.765625 3.640627 -1.765625q1.84375 0 3.046875 1.390625l0 -6.46875l3.40625 0l0 18.0l-3.0625 0l-0.15625 -1.34375q-1.265625 1.578125 -3.265625 1.578125q-2.234375 0 -3.593752 -1.765625q-1.34375 -1.765625 -1.34375 -4.90625zm3.375002 0.25q0 1.78125 0.625 2.734375q0.625 0.9375 1.8125 0.9375q1.5625 0 2.203125 -1.3125l0 -5.015625q-0.625 -1.3125 -2.1875 -1.3125q-2.453125 0 -2.453125 3.96875zm16.507812 6.421875q-2.796875 0 -4.546875 -1.703125q-1.75 -1.71875 -1.75 -4.5625l0 -0.328125q0 -1.921875 0.734375 -3.421875q0.75 -1.5 2.09375 -2.3125q1.359375 -0.828125 3.09375 -0.828125q2.59375 0 4.09375 1.640625q1.5 1.640625 1.5 4.65625l0 1.390625l-8.078125 0q0.15625 1.234375 0.984375 1.984375q0.828125 0.75 2.09375 0.75q1.953125 0 3.0625 -1.421875l1.65625 1.875q-0.75 1.078125 -2.0625 1.6875q-1.296875 0.59375 -2.875 0.59375zm-0.390625 -10.40625q-1.0 0 -1.640625 0.6875q-0.625 0.671875 -0.796875 1.9375l4.71875 0l0 -0.265625q-0.03125 -1.125 -0.625 -1.734375q-0.578125 -0.625 -1.65625 -0.625zm12.1171875 6.03125l2.3593712 -8.546875l3.53125 0l-4.265621 12.6875l-3.234375 0l-4.28125 -12.6875l3.53125 0l2.359375 8.546875zm14.253902 0.640625q0 -0.625 -0.625 -0.984375q-0.609375 -0.359375 -1.96875 -0.640625q-4.515625 -0.953125 -4.515625 -3.84375q0 -1.6875 1.390625 -2.8125q1.40625 -1.140625 3.671875 -1.140625q2.40625 0 3.84375 1.140625q1.453125 1.140625 1.453125 2.953125l-3.375 0q0 -0.71875 -0.46875 -1.1875q-0.46875 -0.484375 -1.46875 -0.484375q-0.859375 0 -1.328125 0.390625q-0.46875 0.375 -0.46875 0.984375q0 0.5625 0.53125 0.90625q0.53125 0.34375 1.796875 0.59375q1.265625 0.25 2.140625 0.5625q2.6875 0.984375 2.6875 3.421875q0 1.734375 -1.5 2.8125q-1.484375 1.0625 -3.84375 1.0625q-1.59375 0 -2.828125 -0.5625q-1.234375 -0.578125 -1.9375 -1.5625q-0.703125 -1.0 -0.703125 -2.140625l3.21875 0q0.046875 0.90625 0.65625 1.390625q0.625 0.46875 1.671875 0.46875q0.96875 0 1.46875 -0.359375q0.5 -0.375 0.5 -0.96875zm6.3554688 7.78125l-1.78125 -0.921875l0.421875 -0.765625q0.796875 -1.4375 0.8125 -2.859375l0 -2.625l2.859375 0l-0.015625 2.34375q0 1.3125 -0.65625 2.625q-0.640625 1.328125 -1.640625 2.203125zm10.4296875 -10.734375q0 -1.890625 0.71875 -3.359375q0.734375 -1.484375 2.09375 -2.296875q1.359375 -0.8125 3.171875 -0.8125q2.5625 0 4.1875 1.578125q1.625 1.5625 1.8125 4.265625l0.015625 0.859375q0 2.921875 -1.625 4.6875q-1.625 1.765625 -4.375 1.765625q-2.734375 0 -4.375 -1.75q-1.625 -1.765625 -1.625 -4.796875l0 -0.140625zm3.375 0.234375q0 1.8125 0.671875 2.765625q0.6875 0.953125 1.953125 0.953125q1.234375 0 1.921875 -0.9375q0.703125 -0.953125 0.703125 -3.015625q0 -1.78125 -0.703125 -2.75q-0.6875 -0.96875 -1.9375 -0.96875q-1.25 0 -1.9375 0.96875q-0.671875 0.96875 -0.671875 2.984375zm22.132812 0q0 2.921875 -1.328125 4.6875q-1.328125 1.765625 -3.59375 1.765625q-1.921875 0 -3.109375 -1.34375l0 5.984375l-3.390625 0l0 -17.5625l3.140625 0l0.125 1.25q1.234375 -1.484375 3.203125 -1.484375q2.34375 0 3.640625 1.734375q1.3125 1.734375 1.3125 4.78125l0 0.1875zm-3.390625 -0.25q0 -1.765625 -0.625 -2.71875q-0.625 -0.96875 -1.828125 -0.96875q-1.59375 0 -2.1875 1.21875l0 5.1875q0.625 1.25 2.21875 1.25q2.421875 0 2.421875 -3.96875zm12.355469 2.96875q0 -0.625 -0.625 -0.984375q-0.609375 -0.359375 -1.96875 -0.640625q-4.515625 -0.953125 -4.515625 -3.84375q0 -1.6875 1.390625 -2.8125q1.40625 -1.140625 3.671875 -1.140625q2.40625 0 3.84375 1.140625q1.453125 1.140625 1.453125 2.953125l-3.375 0q0 -0.71875 -0.46875 -1.1875q-0.46875 -0.484375 -1.46875 -0.484375q-0.859375 0 -1.328125 0.390625q-0.46875 0.375 -0.46875 0.984375q0 0.5625 0.53125 0.90625q0.53125 0.34375 1.796875 0.59375q1.265625 0.25 2.140625 0.5625q2.6875 0.984375 2.6875 3.421875q0 1.734375 -1.5 2.8125q-1.484375 1.0625 -3.84375 1.0625q-1.59375 0 -2.828125 -0.5625q-1.234375 -0.578125 -1.9375 -1.5625q-0.703125 -1.0 -0.703125 -2.140625l3.21875 0q0.046875 0.90625 0.65625 1.390625q0.625 0.46875 1.671875 0.46875q0.96875 0 1.46875 -0.359375q0.5 -0.375 0.5 -0.96875z" fill-rule="nonzero"/><path fill="#000000" d="m46.486942 171.38457l-1.21875 1.21875l0 3.875l-3.390625 0l0 -18.0l3.390625 0l0 9.96875l0.65625 -0.84375l3.25 -3.8125l4.0625 0l-4.578125 5.296875l4.984375 7.390625l-3.890625 0l-3.265625 -5.09375zm15.8046875 3.796875q-1.25 1.53125 -3.46875 1.53125q-2.03125 0 -3.109375 -1.171875q-1.0625 -1.171875 -1.09375 -3.4375l0 -8.3125l3.390625 0l0 8.203125q0 1.96875 1.796875 1.96875q1.734375 0 2.375 -1.1875l0 -8.984375l3.3906212 0l0 12.6875l-3.1874962 0l-0.09375 -1.296875zm17.273434 -4.921875q0 3.046875 -1.3125 4.75q-1.296875 1.703125 -3.625 1.703125q-2.0625 0 -3.296875 -1.578125l-0.15625 1.34375l-3.046875 0l0 -18.0l3.390625 0l0 6.453125q1.171875 -1.375 3.078125 -1.375q2.328125 0 3.640625 1.71875q1.328125 1.703125 1.328125 4.796875l0 0.1875zm-3.390625 -0.25q0 -1.921875 -0.609375 -2.796875q-0.609375 -0.890625 -1.8125 -0.890625q-1.625 0 -2.234375 1.3125l0 5.015625q0.625 1.328125 2.25 1.328125q1.640625 0 2.15625 -1.609375q0.25 -0.78125 0.25 -2.359375zm11.308594 6.703125q-2.796875 0 -4.546875 -1.703125q-1.75 -1.71875 -1.75 -4.5625l0 -0.328125q0 -1.921875 0.734375 -3.421875q0.75 -1.5 2.09375 -2.3125q1.359375 -0.828125 3.09375 -0.828125q2.59375 0 4.09375 1.640625q1.5 1.640625 1.5 4.65625l0 1.390625l-8.078125 0q0.15625 1.234375 0.984375 1.984375q0.828125 0.75 2.09375 0.75q1.953125 0 3.0625 -1.421875l1.65625 1.875q-0.75 1.078125 -2.0625 1.6875q-1.296875 0.59375 -2.875 0.59375zm-0.390625 -10.40625q-1.0 0 -1.640625 0.6875q-0.625 0.671875 -0.796875 1.9375l4.71875 0l0 -0.265625q-0.03125 -1.125 -0.625 -1.734375q-0.578125 -0.625 -1.65625 -0.625zm12.800781 7.671875q0.9375 0 1.515625 -0.515625q0.59375 -0.515625 0.609375 -1.375l3.1875 0q-0.015625 1.296875 -0.71875 2.375q-0.6875 1.0625 -1.890625 1.65625q-1.1875 0.59375 -2.640625 0.59375q-2.71875 0 -4.296875 -1.71875q-1.5625 -1.734375 -1.5625 -4.78125l0 -0.234375q0 -2.921875 1.546875 -4.671875q1.5625 -1.75 4.28125 -1.75q2.375 0 3.8125 1.359375q1.4375 1.359375 1.46875 3.609375l-3.1875 0q-0.015625 -0.984375 -0.609375 -1.59375q-0.578125 -0.625 -1.546875 -0.625q-1.171875 0 -1.78125 0.859375q-0.609375 0.859375 -0.609375 2.796875l0 0.34375q0 1.96875 0.59375 2.828125q0.609375 0.84375 1.828125 0.84375zm11.296875 -13.296875l0 3.109375l2.171875 0l0 2.484375l-2.171875 0l0 6.328125q0 0.703125 0.265625 1.015625q0.265625 0.296875 1.03125 0.296875q0.5625 0 1.0 -0.078125l0 2.5625q-1.0 0.3125 -2.046875 0.3125q-3.5625 0 -3.640625 -3.59375l0 -6.84375l-1.84375 0l0 -2.484375l1.84375 0l0 -3.109375l3.390625 0zm7.625 15.796875l-3.390625 0l0 -18.0l3.390625 0l0 18.0z" fill-rule="nonzero"/><path fill="#000000" fill-opacity="0.0" d="m399.5257 295.12073l134.64569 0l0 46.519684l-134.64569 0z" fill-rule="evenodd"/><path fill="#000000" d="m418.80948 314.47324l0.09375 1.421875q1.359375 -1.65625 3.65625 -1.65625q2.4375 0 3.359375 1.9375q1.328125 -1.9375 3.8125 -1.9375q2.0625 0 3.0625 1.203125q1.015625 1.203125 1.015625 3.625l0 8.09375l-3.40625 0l0 -8.09375q0 -1.078125 -0.421875 -1.5625q-0.421875 -0.5 -1.484375 -0.5q-1.53125 0 -2.109375 1.453125l0.015625 8.703125l-3.390625 0l0 -8.078125q0 -1.09375 -0.4375 -1.578125q-0.4375 -0.5 -1.46875 -0.5q-1.453125 0 -2.09375 1.1875l0 8.96875l-3.390625 0l0 -12.6875l3.1875 0zm24.949219 12.6875q-0.234375 -0.453125 -0.34375 -1.140625q-1.234375 1.375 -3.203125 1.375q-1.859375 0 -3.09375 -1.078125q-1.21875 -1.078125 -1.21875 -2.71875q0 -2.015625 1.484375 -3.09375q1.5 -1.078125 4.328125 -1.09375l1.5625 0l0 -0.71875q0 -0.890625 -0.453125 -1.40625q-0.453125 -0.53125 -1.421875 -0.53125q-0.859375 0 -1.34375 0.40625q-0.484375 0.40625 -0.484375 1.125l-3.390625 0q0 -1.09375 0.671875 -2.03125q0.6875 -0.9375 1.921875 -1.46875q1.25 -0.546875 2.796875 -0.546875q2.34375 0 3.71875 1.1875q1.375 1.171875 1.375 3.3125l0 5.484375q0.015625 1.8125 0.515625 2.734375l0 0.203125l-3.421875 0zm-2.8125 -2.359375q0.75 0 1.375 -0.328125q0.640625 -0.34375 0.953125 -0.90625l0 -2.171875l-1.265625 0q-2.546875 0 -2.703125 1.75l-0.015625 0.203125q0 0.640625 0.4375 1.046875q0.453125 0.40625 1.21875 0.40625zm15.1953125 -1.140625q0 -0.625 -0.625 -0.984375q-0.609375 -0.359375 -1.96875 -0.640625q-4.515625 -0.953125 -4.515625 -3.84375q0 -1.6875 1.390625 -2.8125q1.40625 -1.140625 3.671875 -1.140625q2.40625 0 3.84375 1.140625q1.453125 1.140625 1.453125 2.953125l-3.375 0q0 -0.71875 -0.46875 -1.1875q-0.46875 -0.484375 -1.46875 -0.484375q-0.859375 0 -1.328125 0.390625q-0.46875 0.375 -0.46875 0.984375q0 0.5625 0.53125 0.90625q0.53125 0.34375 1.796875 0.59375q1.265625 0.25 2.140625 0.5625q2.6875 0.984375 2.6875 3.421875q0 1.734375 -1.5 2.8125q-1.484375 1.0625 -3.84375 1.0625q-1.59375 0 -2.828125 -0.5625q-1.234375 -0.578125 -1.9375 -1.5625q-0.703125 -1.0 -0.703125 -2.140625l3.21875 0q0.046875 0.90625 0.65625 1.390625q0.625 0.46875 1.671875 0.46875q0.96875 0 1.46875 -0.359375q0.5 -0.375 0.5 -0.96875zm9.527313 -12.296875l0 3.109375l2.171875 0l0 2.484375l-2.171875 0l0 6.328125q0 0.703125 0.265625 1.015625q0.265625 0.296875 1.03125 0.296875q0.5625 0 1.0 -0.078125l0 2.5625q-1.0 0.3125 -2.046875 0.3125q-3.5624695 0 -3.6405945 -3.59375l0 -6.84375l-1.84375 0l0 -2.484375l1.84375 0l0 -3.109375l3.3905945 0zm9.890625 16.03125q-2.796875 0 -4.546875 -1.703125q-1.75 -1.71875 -1.75 -4.5625l0 -0.328125q0 -1.921875 0.734375 -3.421875q0.75 -1.5 2.09375 -2.3125q1.359375 -0.828125 3.09375 -0.828125q2.59375 0 4.09375 1.640625q1.5 1.640625 1.5 4.65625l0 1.390625l-8.078125 0q0.15625 1.234375 0.984375 1.984375q0.828125 0.75 2.09375 0.75q1.953125 0 3.0625 -1.421875l1.65625 1.875q-0.75 1.078125 -2.0625 1.6875q-1.296875 0.59375 -2.875 0.59375zm-0.390625 -10.40625q-1.0 0 -1.640625 0.6875q-0.625 0.671875 -0.796875 1.9375l4.71875 0l0 -0.265625q-0.03125 -1.125 -0.625 -1.734375q-0.578125 -0.625 -1.65625 -0.625zm14.644531 0.671875q-0.6875 -0.09375 -1.21875 -0.09375q-1.921875 0 -2.515625 1.296875l0 8.296875l-3.390625 0l0 -12.6875l3.203125 0l0.09375 1.515625q1.015625 -1.75 2.828125 -1.75q0.5625 0 1.046875 0.15625l-0.046875 3.265625zm1.7851562 2.5625q0 -2.6875 0.71875 -5.109375q0.71875 -2.421875 2.109375 -4.296875q1.390625 -1.875 3.015625 -2.59375l0.65625 1.828125q-1.703125 1.265625 -2.671875 3.921875q-0.953125 2.640625 -0.953125 6.171875l0 0.375q0 3.546875 0.9375 6.21875q0.953125 2.65625 2.6875 3.96875l-0.65625 1.78125q-1.59375 -0.703125 -2.96875 -2.515625q-1.375 -1.8125 -2.109375 -4.171875q-0.71875 -2.375 -0.765625 -4.953125l0 -0.625zm15.144531 3.4375q0 -0.625 -0.625 -0.984375q-0.609375 -0.359375 -1.96875 -0.640625q-4.515625 -0.953125 -4.515625 -3.84375q0 -1.6875 1.390625 -2.8125q1.40625 -1.140625 3.671875 -1.140625q2.40625 0 3.84375 1.140625q1.453125 1.140625 1.453125 2.953125l-3.375 0q0 -0.71875 -0.46875 -1.1875q-0.46875 -0.484375 -1.46875 -0.484375q-0.859375 0 -1.328125 0.390625q-0.46875 0.375 -0.46875 0.984375q0 0.5625 0.53125 0.90625q0.53125 0.34375 1.796875 0.59375q1.265625 0.25 2.140625 0.5625q2.6875 0.984375 2.6875 3.421875q0 1.734375 -1.5 2.8125q-1.484375 1.0625 -3.84375 1.0625q-1.59375 0 -2.828125 -0.5625q-1.234375 -0.578125 -1.9375 -1.5625q-0.703125 -1.0 -0.703125 -2.140625l3.21875 0q0.046875 0.90625 0.65625 1.390625q0.625 0.46875 1.671875 0.46875q0.96875 0 1.46875 -0.359375q0.5 -0.375 0.5 -0.96875zm11.308594 -3.171875q0 2.65625 -0.765625 5.109375q-0.765625 2.4375 -2.203125 4.3125q-1.421875 1.875 -3.046875 2.578125l-0.65625 -1.78125q1.671875 -1.265625 2.625 -3.875q0.96875 -2.609375 1.0 -6.015625l0 -0.625q0 -3.5 -0.953125 -6.171875q-0.953125 -2.671875 -2.671875 -4.0l0.65625 -1.796875q1.59375 0.6875 3.0 2.515625q1.421875 1.8125 2.203125 4.234375q0.78125 2.40625 0.8125 4.984375l0 0.53125z" fill-rule="nonzero"/><path fill="#ffffff" d="m30.900263 203.81496l85.29785 0l0 53.471756c-42.64663 0 -42.64663 20.573242 -85.29785 10.286621zm7.0274982 0l0 -6.9322815l84.71529 0l0 53.80719c-3.220169 0 -6.444931 0.37271118 -6.444931 0.37271118l0 -47.24762zm6.60548 -6.9322815l0 -6.764572l85.44923 0l0 53.63948c-3.6697083 0 -7.339424 0.27952576 -7.339424 0.27952576l0 -47.154434z" fill-rule="evenodd"/><path fill="#000000" fill-opacity="0.0" d="m30.900263 203.81496l85.29785 0l0 53.471756c-42.64663 0 -42.64663 20.573242 -85.29785 10.286621zm7.0274982 0l0 -6.9322815l84.71529 0l0 53.80719c-3.220169 0 -6.444931 0.37271118 -6.444931 0.37271118m-71.66487 -54.1799l0 -6.764572l85.44923 0l0 53.63948c-3.6697083 0 -7.339424 0.27952576 -7.339424 0.27952576" fill-rule="evenodd"/><path fill="#000000" fill-opacity="0.0" d="m30.900263 267.57333c42.651222 10.286621 42.651222 -10.286621 85.29785 -10.286621l0 -6.2241364c0 0 3.224762 -0.37271118 6.444931 -0.37271118l0 -6.6527557c0 0 3.669716 -0.27952576 7.339424 -0.27952576l0 -53.63948l-85.44923 0l0 6.764572l-6.60548 0l0 6.9322815l-7.0274982 0z" fill-rule="evenodd"/><path stroke="#666666" stroke-width="1.0" stroke-linejoin="round" stroke-linecap="butt" d="m30.900263 203.81496l85.29785 0l0 53.471756c-42.64663 0 -42.64663 20.573242 -85.29785 10.286621zm7.0274982 0l0 -6.9322815l84.71529 0l0 53.80719c-3.220169 0 -6.444931 0.37271118 -6.444931 0.37271118m-71.66487 -54.1799l0 -6.764572l85.44923 0l0 53.63948c-3.6697083 0 -7.339424 0.27952576 -7.339424 0.27952576" fill-rule="evenodd"/><path fill="#000000" d="m51.815903 241.31728q0 -0.625 0.421875 -1.015625q0.4375 -0.390625 1.0625 -0.390625q0.65625 0 1.078125 0.390625q0.421875 0.390625 0.421875 1.015625q0 0.625 -0.421875 1.015625q-0.421875 0.375 -1.078125 0.375q-0.640625 0 -1.0625 -0.375q-0.421875 -0.390625 -0.421875 -1.015625zm8.967026 -2.421875l1.828125 -6.140625l2.828125 0l-3.96875 11.390625l-0.21875 0.515625q-0.890625 1.9375 -2.921875 1.9375q-0.5625 0 -1.15625 -0.171875l0 -2.0l0.390625 0.015625q0.75 0 1.109375 -0.234375q0.375 -0.234375 0.59375 -0.75l0.3125 -0.8125l-3.453125 -9.890625l2.828125 0l1.828125 6.140625zm11.259094 3.71875q-0.171875 -0.359375 -0.265625 -0.890625q-0.953125 1.078125 -2.484375 1.078125q-1.453125 0 -2.40625 -0.84375q-0.9375 -0.84375 -0.9375 -2.109375q0 -1.578125 1.15625 -2.40625q1.15625 -0.84375 3.359375 -0.84375l1.203125 0l0 -0.578125q0 -0.671875 -0.359375 -1.078125q-0.34375 -0.421875 -1.09375 -0.421875q-0.65625 0 -1.046875 0.328125q-0.375 0.3125 -0.375 0.875l-2.625 0q0 -0.859375 0.515625 -1.578125q0.53125 -0.734375 1.5 -1.140625q0.96875 -0.421875 2.171875 -0.421875q1.8125 0 2.875 0.921875q1.078125 0.90625 1.078125 2.5625l0 4.265625q0.015625 1.40625 0.390625 2.125l0 0.15625l-2.65625 0zm-2.171875 -1.828125q0.578125 0 1.0625 -0.25q0.5 -0.265625 0.734375 -0.703125l0 -1.703125l-0.984375 0q-1.96875 0 -2.09375 1.375l-0.015625 0.15625q0 0.484375 0.34375 0.8125q0.34375 0.3125 0.953125 0.3125zm8.939728 -8.03125l0.078125 1.109375q1.046875 -1.28125 2.828125 -1.28125q1.90625 0 2.625 1.5q1.03125 -1.5 2.953125 -1.5q1.609375 0 2.390625 0.9375q0.78125 0.921875 0.78125 2.796875l0 6.296875l-2.640625 0l0 -6.28125q0 -0.84375 -0.328125 -1.21875q-0.328125 -0.390625 -1.15625 -0.390625q-1.1875 0 -1.640625 1.125l0 6.765625l-2.625 0l0 -6.28125q0 -0.84375 -0.34375 -1.21875q-0.328125 -0.390625 -1.140625 -0.390625q-1.125 0 -1.625 0.921875l0 6.96875l-2.625 0l0 -9.859375l2.46875 0zm16.463638 9.859375l-2.65625 0l0 -14.0l2.65625 0l0 14.0z" fill-rule="nonzero"/><path fill="#ffffff" d="m324.6895 174.23633l28.156647 -120.57527l114.00159 -53.66106l114.00156 53.66106l28.156677 120.57527l-78.89258 96.694244l-126.53134 0z" fill-rule="evenodd"/><path stroke="#4285f4" stroke-width="4.0" stroke-linejoin="round" stroke-linecap="butt" d="m324.6895 174.23633l28.156647 -120.57527l114.00159 -53.66106l114.00156 53.66106l28.156677 120.57527l-78.89258 96.694244l-126.53134 0z" fill-rule="evenodd"/><path fill="#4285f4" d="m405.1509 119.671906l102.83423 0l20.567352 20.567337l0 115.46416l0 0l-102.83423 0l-20.567352 -20.567337l0 -115.46416z" fill-rule="evenodd"/><path stroke="#ffffff" stroke-width="2.0" stroke-linejoin="round" stroke-linecap="butt" d="m405.1509 119.671906l102.83423 0l20.567352 20.567337l0 115.46416l0 0l-102.83423 0l-20.567352 -20.567337l0 -115.46416z" fill-rule="evenodd"/><path fill="#ffffff" d="m454.08392 155.06308q-2.171875 0 -3.53125 -1.328125q-1.359375 -1.34375 -1.359375 -3.546875l0 -0.265625q0 -1.484375 0.5625 -2.640625q0.578125 -1.171875 1.625 -1.796875q1.0625 -0.640625 2.40625 -0.640625q2.03125 0 3.1875 1.28125q1.15625 1.265625 1.15625 3.609375l0 1.0625l-6.265625 0q0.125 0.96875 0.765625 1.5625q0.640625 0.578125 1.625 0.578125q1.515625 0 2.375 -1.109375l1.296875 1.453125q-0.59375 0.84375 -1.609375 1.3125q-1.0 0.46875 -2.234375 0.46875zm-0.296875 -8.09375q-0.78125 0 -1.28125 0.53125q-0.484375 0.53125 -0.609375 1.515625l3.65625 0l0 -0.21875q-0.015625 -0.875 -0.484375 -1.34375q-0.453125 -0.484375 -1.28125 -0.484375zm8.9904785 -4.375l0 2.421875l1.6875 0l0 1.9375l-1.6875 0l0 4.921875q0 0.546875 0.203125 0.78125q0.21875 0.234375 0.8125 0.234375q0.4375 0 0.78125 -0.0625l0 2.0q-0.78125 0.234375 -1.59375 0.234375q-2.78125 0 -2.828125 -2.796875l0 -5.3125l-1.4375 0l0 -1.9375l1.4375 0l0 -2.421875l2.625 0zm7.256897 10.34375q0.734375 0 1.1875 -0.390625q0.453125 -0.40625 0.46875 -1.078125l2.46875 0q0 1.0 -0.546875 1.84375q-0.53125 0.828125 -1.46875 1.296875q-0.9375 0.453125 -2.0625 0.453125q-2.109375 0 -3.34375 -1.34375q-1.21875 -1.34375 -1.21875 -3.71875l0 -0.171875q0 -2.28125 1.21875 -3.625q1.21875 -1.359375 3.328125 -1.359375q1.84375 0 2.953125 1.046875q1.125 1.046875 1.140625 2.796875l-2.46875 0q-0.015625 -0.765625 -0.46875 -1.234375q-0.453125 -0.484375 -1.203125 -0.484375q-0.921875 0 -1.390625 0.671875q-0.46875 0.671875 -0.46875 2.171875l0 0.265625q0 1.53125 0.453125 2.203125q0.46875 0.65625 1.421875 0.65625zm5.213318 -3.0625q0 -2.3125 1.03125 -3.671875q1.046875 -1.359375 2.84375 -1.359375q1.4375 0 2.375 1.0625l0 -5.03125l2.640625 0l0 14.0l-2.375 0l-0.125 -1.046875q-0.984375 1.234375 -2.53125 1.234375q-1.75 0 -2.8125 -1.375q-1.046875 -1.375 -1.046875 -3.8125zm2.640625 0.1875q0 1.390625 0.484375 2.125q0.484375 0.734375 1.40625 0.734375q1.21875 0 1.71875 -1.03125l0 -3.890625q-0.5 -1.015625 -1.703125 -1.015625q-1.90625 0 -1.90625 3.078125z" fill-rule="nonzero"/><path fill="#4285f4" d="m405.15082 41.527023l116.057556 0l7.343994 7.343979l0 36.719017l0 0l-116.05759 0l-7.3439636 -7.343979l0 -36.719017z" fill-rule="evenodd"/><path stroke="#ffffff" stroke-width="2.0" stroke-linejoin="round" stroke-linecap="butt" d="m405.15082 41.527023l116.057556 0l7.343994 7.343979l0 36.719017l0 0l-116.05759 0l-7.3439636 -7.343979l0 -36.719017z" fill-rule="evenodd"/><path fill="#ffffff" d="m434.42227 70.11901q-0.171875 -0.359375 -0.265625 -0.890625q-0.953125 1.078125 -2.484375 1.078125q-1.453125 0 -2.40625 -0.84375q-0.9375 -0.84375 -0.9375 -2.109375q0 -1.578125 1.15625 -2.40625q1.15625 -0.84375 3.359375 -0.84375l1.203125 0l0 -0.578125q0 -0.671875 -0.359375 -1.078125q-0.34375 -0.421875 -1.09375 -0.421875q-0.65625 0 -1.046875 0.328125q-0.375 0.3125 -0.375 0.875l-2.625 0q0 -0.859375 0.515625 -1.578125q0.53125 -0.734375 1.5 -1.140625q0.96875 -0.421875 2.171875 -0.421875q1.8125 0 2.875 0.921875q1.078125 0.90625 1.078125 2.5625l0 4.265625q0.015625 1.40625 0.390625 2.125l0 0.15625l-2.65625 0zm-2.171875 -1.828125q0.578125 0 1.0625 -0.25q0.5 -0.265625 0.734375 -0.703125l0 -1.703125l-0.984375 0q-1.96875 0 -2.09375 1.375l-0.015625 0.15625q0 0.484375 0.34375 0.8125q0.34375 0.3125 0.953125 0.3125zm15.345978 -3.015625q0 2.28125 -1.046875 3.65625q-1.03125 1.375 -2.78125 1.375q-1.5 0 -2.421875 -1.046875l0 4.65625l-2.625 0l0 -13.65625l2.4375 0l0.09375 0.96875q0.953125 -1.140625 2.5 -1.140625q1.8125 0 2.828125 1.34375q1.015625 1.34375 1.015625 3.71875l0 0.125zm-2.640625 -0.1875q0 -1.375 -0.484375 -2.109375q-0.484375 -0.75 -1.421875 -0.75q-1.234375 0 -1.703125 0.9375l0 4.03125q0.484375 0.984375 1.71875 0.984375q1.890625 0 1.890625 -3.09375zm7.05011 5.03125l-2.65625 0l0 -9.859375l2.65625 0l0 9.859375zm-2.796875 -12.40625q0 -0.59375 0.390625 -0.96875q0.390625 -0.390625 1.078125 -0.390625q0.671875 0 1.0625 0.390625q0.40625 0.375 0.40625 0.96875q0 0.59375 -0.40625 0.984375q-0.390625 0.375 -1.0625 0.375q-0.671875 0 -1.078125 -0.375q-0.390625 -0.390625 -0.390625 -0.984375zm10.290222 9.6875q0 -0.484375 -0.484375 -0.765625q-0.46875 -0.28125 -1.515625 -0.5q-3.53125 -0.734375 -3.53125 -2.984375q0 -1.3125 1.09375 -2.1875q1.09375 -0.875 2.84375 -0.875q1.875 0 3.0 0.890625q1.125 0.875 1.125 2.28125l-2.625 0q0 -0.5625 -0.375 -0.921875q-0.359375 -0.375 -1.125 -0.375q-0.671875 0 -1.03125 0.296875q-0.359375 0.296875 -0.359375 0.765625q0 0.4375 0.40625 0.703125q0.421875 0.265625 1.40625 0.46875q0.984375 0.1875 1.65625 0.4375q2.078125 0.765625 2.078125 2.65625q0 1.34375 -1.15625 2.1875q-1.15625 0.828125 -2.984375 0.828125q-1.234375 0 -2.203125 -0.4375q-0.953125 -0.453125 -1.5 -1.21875q-0.546875 -0.765625 -0.546875 -1.671875l2.484375 0q0.046875 0.703125 0.53125 1.078125q0.484375 0.375 1.28125 0.375q0.765625 0 1.140625 -0.28125q0.390625 -0.296875 0.390625 -0.75zm8.79541 2.90625q-2.171875 0 -3.53125 -1.328125q-1.359375 -1.34375 -1.359375 -3.546875l0 -0.265625q0 -1.484375 0.5625 -2.640625q0.578125 -1.171875 1.625 -1.796875q1.0625 -0.640625 2.40625 -0.640625q2.03125 0 3.1875 1.28125q1.15625 1.265625 1.15625 3.609375l0 1.0625l-6.265625 0q0.125 0.96875 0.765625 1.5625q0.640625 0.578125 1.625 0.578125q1.515625 0 2.375 -1.109375l1.296875 1.453125q-0.59375 0.84375 -1.609375 1.3125q-1.0 0.46875 -2.234375 0.46875zm-0.296875 -8.09375q-0.78125 0 -1.28125 0.53125q-0.484375 0.53125 -0.609375 1.515625l3.65625 0l0 -0.21875q-0.015625 -0.875 -0.484375 -1.34375q-0.453125 -0.484375 -1.28125 -0.484375zm11.3811035 0.515625q-0.53125 -0.0625 -0.9375 -0.0625q-1.5 0 -1.96875 1.0l0 6.453125l-2.625 0l0 -9.859375l2.484375 0l0.078125 1.171875q0.78125 -1.34375 2.1875 -1.34375q0.4375 0 0.828125 0.109375l-0.046875 2.53125zm5.1250916 4.171875l1.828125 -6.640625l2.75 0l-3.328125 9.859375l-2.515625 0l-3.3125 -9.859375l2.75 0l1.828125 6.640625zm10.153595 3.40625q-2.171875 0 -3.53125 -1.328125q-1.359375 -1.34375 -1.359375 -3.546875l0 -0.265625q0 -1.484375 0.5625 -2.640625q0.578125 -1.171875 1.625 -1.796875q1.0625 -0.640625 2.40625 -0.640625q2.03125 0 3.1875 1.28125q1.15625 1.265625 1.15625 3.609375l0 1.0625l-6.265625 0q0.125 0.96875 0.765625 1.5625q0.640625 0.578125 1.625 0.578125q1.515625 0 2.375 -1.109375l1.296875 1.453125q-0.59375 0.84375 -1.609375 1.3125q-1.0 0.46875 -2.234375 0.46875zm-0.296875 -8.09375q-0.78125 0 -1.28125 0.53125q-0.484375 0.53125 -0.609375 1.515625l3.65625 0l0 -0.21875q-0.015625 -0.875 -0.484375 -1.34375q-0.453125 -0.484375 -1.28125 -0.484375zm11.3811035 0.515625q-0.53125 -0.0625 -0.9375 -0.0625q-1.5 0 -1.96875 1.0l0 6.453125l-2.625 0l0 -9.859375l2.484375 0l0.078125 1.171875q0.78125 -1.34375 2.1875 -1.34375q0.4375 0 0.828125 0.109375l-0.046875 2.53125z" fill-rule="nonzero"/><path fill="#000000" fill-opacity="0.0" d="m183.89096 61.3223l221.25986 2.2362213" fill-rule="evenodd"/><path stroke="#666666" stroke-width="3.0" stroke-linejoin="round" stroke-linecap="butt" d="m183.89096 61.3223l203.26074 2.0543098" fill-rule="evenodd"/><path fill="#666666" stroke="#666666" stroke-width="3.0" stroke-linecap="butt" d="m387.10162 68.33155l13.663696 -4.8173523l-13.563538 -5.092533z" fill-rule="evenodd"/><path fill="#000000" fill-opacity="0.0" d="m466.8516 85.59002l0 34.078735" fill-rule="evenodd"/><path stroke="#666666" stroke-width="3.0" stroke-linejoin="round" stroke-linecap="butt" d="m466.8516 85.59002l0 16.078735" fill-rule="evenodd"/><path fill="#666666" stroke="#666666" stroke-width="3.0" stroke-linecap="butt" d="m461.8964 101.66876l4.9552 13.614288l4.9552 -13.614288z" fill-rule="evenodd"/><path fill="#ffffff" d="m425.45538 184.08331l71.27594 0l0 46.942184c-35.636047 0 -35.636047 18.060974 -71.27594 9.030487zm5.8722534 0l0 -6.0857697l70.789154 0l0 47.236664c-2.690796 0 -5.3854675 0.32717896 -5.3854675 0.32717896l0 -41.478073zm5.519623 -6.0857697l0 -5.9385223l71.402466 0l0 47.089417c-3.0664673 0 -6.1329346 0.24539185 -6.1329346 0.24539185l0 -41.396286z" fill-rule="evenodd"/><path fill="#000000" fill-opacity="0.0" d="m425.45538 184.08331l71.27594 0l0 46.942184c-35.636047 0 -35.636047 18.060974 -71.27594 9.030487zm5.8722534 0l0 -6.0857697l70.789154 0l0 47.236664c-2.690796 0 -5.3854675 0.32717896 -5.3854675 0.32717896m-59.884064 -47.563843l0 -5.9385223l71.402466 0l0 47.089417c-3.0664673 0 -6.1329346 0.24539185 -6.1329346 0.24539185" fill-rule="evenodd"/><path fill="#000000" fill-opacity="0.0" d="m425.45538 240.05598c35.639893 9.030487 35.639893 -9.030487 71.27594 -9.030487l0 -5.4641113c0 0 2.6946716 -0.32717896 5.3854675 -0.32717896l0 -5.840378c0 0 3.0664673 -0.24539185 6.1329346 -0.24539185l0 -47.089417l-71.402466 0l0 5.9385223l-5.519623 0l0 6.0857697l-5.8722534 0z" fill-rule="evenodd"/><path stroke="#666666" stroke-width="1.0" stroke-linejoin="round" stroke-linecap="butt" d="m425.45538 184.08331l71.27594 0l0 46.942184c-35.636047 0 -35.636047 18.060974 -71.27594 9.030487zm5.8722534 0l0 -6.0857697l70.789154 0l0 47.236664c-2.690796 0 -5.3854675 0.32717896 -5.3854675 0.32717896m-59.884064 -47.563843l0 -5.9385223l71.402466 0l0 47.089417c-3.0664673 0 -6.1329346 0.24539185 -6.1329346 0.24539185" fill-rule="evenodd"/><path fill="#000000" d="m439.36288 213.61714q0 -1.25 0.484375 -2.234375q0.484375 -0.984375 1.390625 -1.515625q0.921875 -0.546875 2.125 -0.546875q1.703125 0 2.78125 1.046875q1.09375 1.046875 1.21875 2.84375l0.015625 0.578125q0 1.9375 -1.09375 3.125q-1.078125 1.171875 -2.90625 1.171875q-1.828125 0 -2.921875 -1.171875q-1.09375 -1.171875 -1.09375 -3.1875l0 -0.109375zm2.265625 0.171875q0 1.203125 0.453125 1.84375q0.453125 0.625 1.296875 0.625q0.8125 0 1.265625 -0.625q0.46875 -0.625 0.46875 -2.015625q0 -1.171875 -0.46875 -1.8125q-0.453125 -0.65625 -1.28125 -0.65625q-0.828125 0 -1.28125 0.640625q-0.453125 0.640625 -0.453125 2.0zm14.75 -0.015625q0 2.03125 -0.875 3.171875q-0.859375 1.140625 -2.40625 1.140625q-1.375 0 -2.203125 -1.0625l-0.09375 0.90625l-2.03125 0l0 -12.0l2.25 0l0 4.296875q0.78125 -0.90625 2.0625 -0.90625q1.546875 0 2.421875 1.140625q0.875 1.125 0.875 3.1875l0 0.125zm-2.25 -0.15625q0 -1.28125 -0.40625 -1.875q-0.40625 -0.59375 -1.21875 -0.59375q-1.078125 0 -1.484375 0.890625l0 3.328125q0.421875 0.890625 1.5 0.890625q1.09375 0 1.4375 -1.078125q0.171875 -0.515625 0.171875 -1.5625zm6.0390625 -4.140625l0 8.921875q0 1.390625 -0.75 2.171875q-0.734375 0.78125 -2.140625 0.78125q-0.59375 0 -1.125 -0.140625l0 -1.78125q0.40625 0.0625 0.71875 0.0625q1.03125 0 1.03125 -1.078125l0 -8.9375l2.265625 0zm-2.453125 -2.1875q0 -0.515625 0.34375 -0.84375q0.34375 -0.328125 0.921875 -0.328125q0.59375 0 0.921875 0.328125q0.34375 0.328125 0.34375 0.84375q0 0.515625 -0.34375 0.84375q-0.34375 0.328125 -0.921875 0.328125q-0.5625 0 -0.921875 -0.328125q-0.34375 -0.328125 -0.34375 -0.84375zm8.109375 10.796875q-1.859375 0 -3.03125 -1.140625q-1.171875 -1.140625 -1.171875 -3.046875l0 -0.21875q0 -1.265625 0.484375 -2.265625q0.5 -1.015625 1.40625 -1.546875q0.90625 -0.546875 2.0625 -0.546875q1.734375 0 2.71875 1.09375q1.0 1.09375 1.0 3.09375l0 0.921875l-5.375 0q0.109375 0.828125 0.65625 1.328125q0.546875 0.5 1.390625 0.5q1.3125 0 2.046875 -0.9375l1.109375 1.234375q-0.515625 0.71875 -1.390625 1.125q-0.859375 0.40625 -1.90625 0.40625zm-0.265625 -6.9375q-0.671875 0 -1.09375 0.453125q-0.40625 0.453125 -0.53125 1.296875l3.140625 0l0 -0.1875q-0.015625 -0.75 -0.40625 -1.15625q-0.390625 -0.40625 -1.109375 -0.40625zm7.7265625 -3.75l0 2.078125l1.4375 0l0 1.65625l-1.4375 0l0 4.21875q0 0.46875 0.171875 0.671875q0.1875 0.203125 0.6875 0.203125q0.375 0 0.671875 -0.0625l0 1.71875q-0.671875 0.203125 -1.375 0.203125q-2.375 0 -2.421875 -2.40625l0 -4.546875l-1.234375 0l0 -1.65625l1.234375 0l0 -2.078125l2.265625 0zm7.28125 8.1875q0 -0.40625 -0.421875 -0.640625q-0.40625 -0.25 -1.3125 -0.4375q-3.015625 -0.625 -3.015625 -2.5625q0 -1.125 0.9375 -1.875q0.9375 -0.75 2.4375 -0.75q1.609375 0 2.578125 0.765625q0.96875 0.75 0.96875 1.953125l-2.265625 0q0 -0.484375 -0.3125 -0.796875q-0.3125 -0.3125 -0.96875 -0.3125q-0.578125 0 -0.890625 0.265625q-0.3125 0.25 -0.3125 0.640625q0 0.375 0.359375 0.609375q0.359375 0.234375 1.203125 0.40625q0.84375 0.15625 1.421875 0.375q1.78125 0.65625 1.78125 2.265625q0 1.15625 -1.0 1.875q-0.984375 0.71875 -2.546875 0.71875q-1.0625 0 -1.890625 -0.375q-0.828125 -0.390625 -1.296875 -1.046875q-0.46875 -0.65625 -0.46875 -1.421875l2.140625 0q0.03125 0.59375 0.4375 0.921875q0.421875 0.3125 1.125 0.3125q0.640625 0 0.96875 -0.234375q0.34375 -0.25 0.34375 -0.65625z" fill-rule="nonzero"/><path fill="#000000" fill-opacity="0.0" d="m670.63544 47.401573l99.08661 0l0 32.314964l-99.08661 0z" fill-rule="evenodd"/><path fill="#000000" d="m703.378 67.41905l3.25 -9.375l1.640625 0l-4.21875 11.375l-1.328125 0l-4.21875 -11.375l1.640625 0l3.234375 9.375zm11.0390625 2.0q-0.125 -0.25 -0.203125 -0.890625q-1.0 1.046875 -2.40625 1.046875q-1.25 0 -2.046875 -0.703125q-0.796875 -0.71875 -0.796875 -1.796875q0 -1.328125 1.0 -2.046875q1.0 -0.734375 2.828125 -0.734375l1.40625 0l0 -0.671875q0 -0.75 -0.453125 -1.203125q-0.453125 -0.453125 -1.34375 -0.453125q-0.765625 0 -1.296875 0.390625q-0.515625 0.390625 -0.515625 0.953125l-1.453125 0q0 -0.640625 0.4375 -1.21875q0.453125 -0.59375 1.21875 -0.9375q0.78125 -0.34375 1.703125 -0.34375q1.453125 0 2.28125 0.734375q0.828125 0.71875 0.859375 2.0l0 3.890625q0 1.171875 0.296875 1.859375l0 0.125l-1.515625 0zm-2.390625 -1.109375q0.671875 0 1.28125 -0.34375q0.609375 -0.359375 0.890625 -0.921875l0 -1.734375l-1.140625 0q-2.65625 0 -2.65625 1.5625q0 0.671875 0.453125 1.0625q0.453125 0.375 1.171875 0.375zm7.453125 1.109375l-1.453125 0l0 -12.0l1.453125 0l0 12.0zm3.8828125 0l-1.453125 0l0 -8.453125l1.453125 0l0 8.453125zm-1.5625 -10.703125q0 -0.34375 0.203125 -0.578125q0.21875 -0.25 0.640625 -0.25q0.421875 0 0.640625 0.25q0.21875 0.234375 0.21875 0.59375q0 0.34375 -0.21875 0.578125q-0.21875 0.234375 -0.640625 0.234375q-0.421875 0 -0.640625 -0.234375q-0.203125 -0.234375 -0.203125 -0.59375zm3.5234375 6.40625q0 -1.953125 0.921875 -3.125q0.921875 -1.1875 2.40625 -1.1875q1.484375 0 2.359375 1.015625l0 -4.40625l1.4375 0l0 12.0l-1.328125 0l-0.0625 -0.90625q-0.875 1.0625 -2.421875 1.0625q-1.46875 0 -2.390625 -1.203125q-0.921875 -1.203125 -0.921875 -3.140625l0 -0.109375zm1.4375 0.15625q0 1.4375 0.59375 2.25q0.59375 0.8125 1.640625 0.8125q1.375 0 2.015625 -1.234375l0 -3.875q-0.65625 -1.203125 -2.0 -1.203125q-1.0625 0 -1.65625 0.828125q-0.59375 0.8125 -0.59375 2.421875zm11.4453125 4.296875q-1.71875 0 -2.796875 -1.125q-1.078125 -1.140625 -1.078125 -3.03125l0 -0.265625q0 -1.25 0.46875 -2.234375q0.484375 -1.0 1.34375 -1.546875q0.875 -0.5625 1.875 -0.5625q1.65625 0 2.5625 1.09375q0.921875 1.078125 0.921875 3.09375l0 0.609375l-5.734375 0q0.03125 1.25 0.734375 2.015625q0.703125 0.765625 1.78125 0.765625q0.765625 0 1.296875 -0.3125q0.53125 -0.3125 0.921875 -0.828125l0.890625 0.6875q-1.0625 1.640625 -3.1875 1.640625zm-0.1875 -7.578125q-0.875 0 -1.46875 0.640625q-0.59375 0.625 -0.734375 1.78125l4.234375 0l0 -0.109375q-0.0625 -1.109375 -0.59375 -1.703125q-0.53125 -0.609375 -1.4375 -0.609375z" fill-rule="nonzero"/><path fill="#000000" fill-opacity="0.0" d="m516.2493 68.31233l174.07874 0" fill-rule="evenodd"/><path stroke="#000000" stroke-width="1.0" stroke-linejoin="round" stroke-linecap="butt" d="m516.2493 68.31233l174.07874 0" fill-rule="evenodd"/><path fill="#000000" fill-opacity="0.0" d="m670.63544 122.99454l99.08661 0l0 32.314957l-99.08661 0z" fill-rule="evenodd"/><path fill="#000000" d="m700.60455 139.9339q-1.921875 -0.546875 -2.8125 -1.359375q-0.875 -0.8125 -0.875 -2.0q0 -1.34375 1.078125 -2.21875q1.078125 -0.875 2.796875 -0.875q1.171875 0 2.078125 0.453125q0.921875 0.453125 1.421875 1.25q0.515625 0.796875 0.515625 1.734375l-1.515625 0q0 -1.03125 -0.65625 -1.609375q-0.65625 -0.59375 -1.84375 -0.59375q-1.109375 0 -1.734375 0.484375q-0.625 0.484375 -0.625 1.359375q0 0.6875 0.59375 1.171875q0.59375 0.484375 2.0 0.890625q1.421875 0.390625 2.21875 0.875q0.8125 0.46875 1.1875 1.109375q0.390625 0.640625 0.390625 1.515625q0 1.375 -1.078125 2.21875q-1.078125 0.828125 -2.875 0.828125q-1.171875 0 -2.1875 -0.453125q-1.015625 -0.453125 -1.578125 -1.234375q-0.546875 -0.78125 -0.546875 -1.765625l1.515625 0q0 1.03125 0.75 1.625q0.765625 0.59375 2.046875 0.59375q1.1875 0 1.8125 -0.484375q0.640625 -0.484375 0.640625 -1.3125q0 -0.84375 -0.59375 -1.296875q-0.578125 -0.453125 -2.125 -0.90625zm7.8828125 -5.421875l0 2.046875l1.578125 0l0 1.109375l-1.578125 0l0 5.25q0 0.5 0.203125 0.765625q0.21875 0.25 0.71875 0.25q0.25 0 0.6875 -0.09375l0 1.171875q-0.5625 0.15625 -1.109375 0.15625q-0.96875 0 -1.46875 -0.578125q-0.484375 -0.59375 -0.484375 -1.671875l0 -5.25l-1.53125 0l0 -1.109375l1.53125 0l0 -2.046875l1.453125 0zm2.7265625 6.1875q0 -1.234375 0.484375 -2.21875q0.484375 -1.0 1.359375 -1.53125q0.875 -0.546875 1.984375 -0.546875q1.734375 0 2.796875 1.203125q1.0625 1.1875 1.0625 3.171875l0 0.09375q0 1.234375 -0.46875 2.21875q-0.46875 0.984375 -1.359375 1.53125q-0.875 0.546875 -2.015625 0.546875q-1.71875 0 -2.78125 -1.1875q-1.0625 -1.203125 -1.0625 -3.171875l0 -0.109375zm1.453125 0.171875q0 1.40625 0.640625 2.265625q0.65625 0.84375 1.75 0.84375q1.109375 0 1.75 -0.859375q0.65625 -0.859375 0.65625 -2.421875q0 -1.390625 -0.671875 -2.25q-0.65625 -0.859375 -1.75 -0.859375q-1.0625 0 -1.71875 0.859375q-0.65625 0.84375 -0.65625 2.421875zm11.4375 3.109375q0.78125 0 1.359375 -0.46875q0.578125 -0.46875 0.640625 -1.171875l1.359375 0q-0.03125 0.734375 -0.5 1.390625q-0.453125 0.65625 -1.234375 1.046875q-0.765625 0.390625 -1.625 0.390625q-1.71875 0 -2.75 -1.15625q-1.015625 -1.15625 -1.015625 -3.15625l0 -0.234375q0 -1.234375 0.453125 -2.1875q0.453125 -0.96875 1.296875 -1.5q0.859375 -0.53125 2.015625 -0.53125q1.421875 0 2.359375 0.859375q0.9375 0.84375 1.0 2.203125l-1.359375 0q-0.0625 -0.828125 -0.625 -1.34375q-0.5625 -0.53125 -1.375 -0.53125q-1.109375 0 -1.71875 0.796875q-0.59375 0.78125 -0.59375 2.28125l0 0.28125q0 1.453125 0.59375 2.25q0.609375 0.78125 1.71875 0.78125zm7.34375 -2.890625l-0.90625 0.953125l0 2.96875l-1.4375 0l0 -12.0l1.4375 0l0 7.25l0.78125 -0.921875l2.625 -2.78125l1.765625 0l-3.296875 3.53125l3.671875 4.921875l-1.6875 0l-2.953125 -3.921875zm9.109375 4.078125q-1.71875 0 -2.796875 -1.125q-1.078125 -1.140625 -1.078125 -3.03125l0 -0.265625q0 -1.25 0.46875 -2.234375q0.484375 -1.0 1.34375 -1.546875q0.875 -0.5625 1.875 -0.5625q1.65625 0 2.5625 1.09375q0.921875 1.078125 0.921875 3.09375l0 0.609375l-5.734375 0q0.03125 1.25 0.734375 2.015625q0.703125 0.765625 1.78125 0.765625q0.765625 0 1.296875 -0.3125q0.53125 -0.3125 0.921875 -0.828125l0.890625 0.6875q-1.0625 1.640625 -3.1875 1.640625zm-0.1875 -7.578125q-0.875 0 -1.46875 0.640625q-0.59375 0.625 -0.734375 1.78125l4.234375 0l0 -0.109375q-0.0625 -1.109375 -0.59375 -1.703125q-0.53125 -0.609375 -1.4375 -0.609375z" fill-rule="nonzero"/><path fill="#000000" fill-opacity="0.0" d="m516.2493 144.52493l174.07874 0" fill-rule="evenodd"/><path stroke="#000000" stroke-width="1.0" stroke-linejoin="round" stroke-linecap="butt" d="m516.2493 144.52493l174.07874 0" fill-rule="evenodd"/></g></svg>