<svg version="1.1" viewBox="0.0 0.0 675.1181102362204 297.5249343832021" fill="none" stroke="none" stroke-linecap="square" stroke-miterlimit="10" xmlns:xlink="http://www.w3.org/1999/xlink" xmlns="http://www.w3.org/2000/svg"><clipPath id="p.0"><path d="m0 0l675.1181 0l0 297.52493l-675.1181 0l0 -297.52493z" clip-rule="nonzero"/></clipPath><g clip-path="url(#p.0)"><path fill="#000000" fill-opacity="0.0" d="m0 0l675.1181 0l0 297.52493l-675.1181 0z" fill-rule="evenodd"/><path fill="#cccccc" d="m0 12.882148l0 0c0 -7.114614 5.767534 -12.882148 12.882148 -12.882148l129.85776 0c3.416565 0 6.6931763 1.3572223 9.109055 3.7730937c2.4158783 2.4158711 3.7730865 5.692496 3.7730865 9.109055l0 51.527046c0 7.114609 -5.7675323 12.882141 -12.882141 12.882141l-129.85776 0c-7.114614 0 -12.882148 -5.7675323 -12.882148 -12.882141z" fill-rule="evenodd"/><path stroke="#666666" stroke-width="1.0" stroke-linejoin="round" stroke-linecap="butt" d="m0 12.882148l0 0c0 -7.114614 5.767534 -12.882148 12.882148 -12.882148l129.85776 0c3.416565 0 6.6931763 1.3572223 9.109055 3.7730937c2.4158783 2.4158711 3.7730865 5.692496 3.7730865 9.109055l0 51.527046c0 7.114609 -5.7675323 12.882141 -12.882141 12.882141l-129.85776 0c-7.114614 0 -12.882148 -5.7675323 -12.882148 -12.882141z" fill-rule="evenodd"/><path fill="#000000" d="m14.273052 45.56567l0 -13.359375l1.765625 0l0 5.484375l6.9375 0l0 -5.484375l1.765625 0l0 13.359375l-1.765625 0l0 -6.296875l-6.9375 0l0 6.296875l-1.765625 0zm19.832321 -3.109375l1.6875 0.203125q-0.40625 1.484375 -1.484375 2.3125q-1.078125 0.8125 -2.765625 0.8125q-2.125 0 -3.375 -1.296875q-1.234375 -1.3125 -1.234375 -3.671875q0 -2.453125 1.25 -3.796875q1.265625 -1.34375 3.265625 -1.34375q1.9375 0 3.15625 1.328125q1.234375 1.3125 1.234375 3.703125q0 0.15625 0 0.4375l-7.21875 0q0.09375 1.59375 0.90625 2.453125q0.8125 0.84375 2.015625 0.84375q0.90625 0 1.546875 -0.46875q0.640625 -0.484375 1.015625 -1.515625zm-5.390625 -2.65625l5.40625 0q-0.109375 -1.21875 -0.625 -1.828125q-0.78125 -0.953125 -2.03125 -0.953125q-1.125 0 -1.90625 0.765625q-0.765625 0.75 -0.84375 2.015625zm9.094467 5.765625l0 -13.359375l1.640625 0l0 13.359375l-1.640625 0zm4.144821 0l0 -13.359375l1.640625 0l0 13.359375l-1.640625 0zm3.5823212 -4.84375q0 -2.6875 1.484375 -3.96875q1.25 -1.078125 3.046875 -1.078125q2.0 0 3.265625 1.3125q1.265625 1.296875 1.265625 3.609375q0 1.859375 -0.5625 2.9375q-0.5625 1.0625 -1.640625 1.65625q-1.0625 0.59375 -2.328125 0.59375q-2.03125 0 -3.28125 -1.296875q-1.25 -1.3125 -1.25 -3.765625zm1.6875 0q0 1.859375 0.796875 2.796875q0.8125 0.921875 2.046875 0.921875q1.21875 0 2.03125 -0.921875q0.8125 -0.9375 0.8125 -2.84375q0 -1.796875 -0.8125 -2.71875q-0.8125 -0.921875 -2.03125 -0.921875q-1.234375 0 -2.046875 0.921875q-0.796875 0.90625 -0.796875 2.765625z" fill-rule="nonzero"/><path fill="#cccccc" d="m510.6614 12.882148l0 0c0 -7.114614 5.7675476 -12.882148 12.882172 -12.882148l129.85773 0c3.416565 0 6.6931763 1.3572223 9.10907 3.7730937c2.4158936 2.4158711 3.7730713 5.692496 3.7730713 9.109055l0 51.527046c0 7.114609 -5.767517 12.882141 -12.882141 12.882141l-129.85773 0c-7.114624 0 -12.882172 -5.7675323 -12.882172 -12.882141z" fill-rule="evenodd"/><path stroke="#666666" stroke-width="1.0" stroke-linejoin="round" stroke-linecap="butt" d="m510.6614 12.882148l0 0c0 -7.114614 5.7675476 -12.882148 12.882172 -12.882148l129.85773 0c3.416565 0 6.6931763 1.3572223 9.10907 3.7730937c2.4158936 2.4158711 3.7730713 5.692496 3.7730713 9.109055l0 51.527046c0 7.114609 -5.767517 12.882141 -12.882141 12.882141l-129.85773 0c-7.114624 0 -12.882172 -5.7675323 -12.882172 -12.882141z" fill-rule="evenodd"/><path fill="#000000" d="m523.4032 45.56567l5.125 -13.359375l1.90625 0l5.46875 13.359375l-2.015625 0l-1.546875 -4.046875l-5.59375 0l-1.46875 4.046875l-1.875 0zm3.859375 -5.484375l4.53125 0l-1.40625 -3.703125q-0.625 -1.6875 -0.9375 -2.765625q-0.265625 1.28125 -0.71875 2.546875l-1.46875 3.921875zm16.177979 5.484375l0 -1.421875q-1.125 1.640625 -3.0625 1.640625q-0.859375 0 -1.609375 -0.328125q-0.734375 -0.328125 -1.09375 -0.828125q-0.359375 -0.5 -0.5 -1.21875q-0.109375 -0.46875 -0.109375 -1.53125l0 -5.984375l1.640625 0l0 5.359375q0 1.28125 0.109375 1.734375q0.15625 0.640625 0.65625 1.015625q0.5 0.375 1.234375 0.375q0.734375 0 1.375 -0.375q0.65625 -0.390625 0.921875 -1.03125q0.265625 -0.65625 0.265625 -1.890625l0 -5.1875l1.640625 0l0 9.671875l-1.46875 0zm7.6257324 -1.46875l0.234375 1.453125q-0.6875 0.140625 -1.234375 0.140625q-0.890625 0 -1.390625 -0.28125q-0.484375 -0.28125 -0.6875 -0.734375q-0.203125 -0.46875 -0.203125 -1.9375l0 -5.578125l-1.203125 0l0 -1.265625l1.203125 0l0 -2.390625l1.625 -0.984375l0 3.375l1.65625 0l0 1.265625l-1.65625 0l0 5.671875q0 0.6875 0.078125 0.890625q0.09375 0.203125 0.28125 0.328125q0.203125 0.109375 0.578125 0.109375q0.265625 0 0.71875 -0.0625zm1.6051636 1.46875l0 -13.359375l1.640625 0l0 4.796875q1.140625 -1.328125 2.890625 -1.328125q1.078125 0 1.859375 0.421875q0.796875 0.421875 1.140625 1.171875q0.34375 0.75 0.34375 2.171875l0 6.125l-1.640625 0l0 -6.125q0 -1.234375 -0.53125 -1.796875q-0.53125 -0.5625 -1.515625 -0.5625q-0.71875 0 -1.359375 0.390625q-0.640625 0.375 -0.921875 1.015625q-0.265625 0.640625 -0.265625 1.78125l0 5.296875l-1.640625 0z" fill-rule="nonzero"/><path fill="#cccccc" d="m249.38583 124.61706l0 0c0 -7.1146164 5.7675323 -12.882149 12.882141 -12.882149l129.85776 0c3.416565 0 6.6931763 1.3572235 9.109039 3.7730942c2.4158936 2.4158707 3.7731018 5.6924973 3.7731018 9.109055l0 51.527046c0 7.114609 -5.7675476 12.882141 -12.882141 12.882141l-129.85776 0c-7.114609 0 -12.882141 -5.7675323 -12.882141 -12.882141z" fill-rule="evenodd"/><path stroke="#666666" stroke-width="1.0" stroke-linejoin="round" stroke-linecap="butt" d="m249.38583 124.61706l0 0c0 -7.1146164 5.7675323 -12.882149 12.882141 -12.882149l129.85776 0c3.416565 0 6.6931763 1.3572235 9.109039 3.7730942c2.4158936 2.4158707 3.7731018 5.6924973 3.7731018 9.109055l0 51.527046c0 7.114609 -5.7675476 12.882141 -12.882141 12.882141l-129.85776 0c-7.114609 0 -12.882141 -5.7675323 -12.882141 -12.882141z" fill-rule="evenodd"/><path fill="#000000" d="m263.69012 157.30058l0 -13.359375l9.015625 0l0 1.578125l-7.25 0l0 4.140625l6.265625 0l0 1.578125l-6.265625 0l0 6.0625l-1.765625 0zm11.083496 0l0 -9.671875l1.46875 0l0 1.46875q0.5625 -1.03125 1.03125 -1.359375q0.484375 -0.328125 1.0625 -0.328125q0.828125 0 1.6875 0.53125l-0.5625 1.515625q-0.609375 -0.359375 -1.203125 -0.359375q-0.546875 0 -0.96875 0.328125q-0.421875 0.328125 -0.609375 0.890625q-0.28125 0.875 -0.28125 1.921875l0 5.0625l-1.625 0zm5.618927 -4.84375q0 -2.6875 1.484375 -3.96875q1.25 -1.078125 3.046875 -1.078125q2.0 0 3.265625 1.3125q1.265625 1.296875 1.265625 3.609375q0 1.859375 -0.5625 2.9375q-0.5625 1.0625 -1.640625 1.65625q-1.0625 0.59375 -2.328125 0.59375q-2.03125 0 -3.28125 -1.296875q-1.25 -1.3125 -1.25 -3.765625zm1.6875 0q0 1.859375 0.796875 2.796875q0.8125 0.921875 2.046875 0.921875q1.21875 0 2.03125 -0.921875q0.8125 -0.9375 0.8125 -2.84375q0 -1.796875 -0.8125 -2.71875q-0.8125 -0.921875 -2.03125 -0.921875q-1.234375 0 -2.046875 0.921875q-0.796875 0.90625 -0.796875 2.765625zm9.297577 4.84375l0 -9.671875l1.46875 0l0 1.375q1.0625 -1.59375 3.078125 -1.59375q0.875 0 1.609375 0.3125q0.734375 0.3125 1.09375 0.828125q0.375 0.5 0.515625 1.203125q0.09375 0.453125 0.09375 1.59375l0 5.953125l-1.640625 0l0 -5.890625q0 -1.0 -0.203125 -1.484375q-0.1875 -0.5 -0.671875 -0.796875q-0.484375 -0.296875 -1.140625 -0.296875q-1.046875 0 -1.8125 0.671875q-0.75 0.65625 -0.75 2.515625l0 5.28125l-1.640625 0zm13.953857 -1.46875l0.234375 1.453125q-0.6875 0.140625 -1.234375 0.140625q-0.890625 0 -1.390625 -0.28125q-0.484375 -0.28125 -0.6875 -0.734375q-0.203125 -0.46875 -0.203125 -1.9375l0 -5.578125l-1.203125 0l0 -1.265625l1.203125 0l0 -2.390625l1.625 -0.984375l0 3.375l1.65625 0l0 1.265625l-1.65625 0l0 5.671875q0 0.6875 0.078125 0.890625q0.09375 0.203125 0.28125 0.328125q0.203125 0.109375 0.578125 0.109375q0.265625 0 0.71875 -0.0625zm8.230164 -1.640625l1.6875 0.203125q-0.40625 1.484375 -1.484375 2.3125q-1.078125 0.8125 -2.765625 0.8125q-2.125 0 -3.375 -1.296875q-1.234375 -1.3125 -1.234375 -3.671875q0 -2.453125 1.25 -3.796875q1.265625 -1.34375 3.265625 -1.34375q1.9375 0 3.15625 1.328125q1.234375 1.3125 1.234375 3.703125q0 0.15625 0 0.4375l-7.21875 0q0.09375 1.59375 0.90625 2.453125q0.8125 0.84375 2.015625 0.84375q0.90625 0 1.546875 -0.46875q0.640625 -0.484375 1.015625 -1.515625zm-5.390625 -2.65625l5.40625 0q-0.109375 -1.21875 -0.625 -1.828125q-0.78125 -0.953125 -2.03125 -0.953125q-1.125 0 -1.90625 0.765625q-0.765625 0.75 -0.84375 2.015625zm9.141357 5.765625l0 -9.671875l1.46875 0l0 1.375q1.0625 -1.59375 3.078125 -1.59375q0.875 0 1.609375 0.3125q0.734375 0.3125 1.09375 0.828125q0.375 0.5 0.515625 1.203125q0.09375 0.453125 0.09375 1.59375l0 5.953125l-1.640625 0l0 -5.890625q0 -1.0 -0.203125 -1.484375q-0.1875 -0.5 -0.671875 -0.796875q-0.484375 -0.296875 -1.140625 -0.296875q-1.046875 0 -1.8125 0.671875q-0.75 0.65625 -0.75 2.515625l0 5.28125l-1.640625 0zm16.641327 0l0 -1.21875q-0.90625 1.4375 -2.703125 1.4375q-1.15625 0 -2.125 -0.640625q-0.96875 -0.640625 -1.5 -1.78125q-0.53125 -1.140625 -0.53125 -2.625q0 -1.453125 0.484375 -2.625q0.484375 -1.1875 1.4375 -1.8125q0.96875 -0.625 2.171875 -0.625q0.875 0 1.546875 0.375q0.6875 0.359375 1.109375 0.953125l0 -4.796875l1.640625 0l0 13.359375l-1.53125 0zm-5.171875 -4.828125q0 1.859375 0.78125 2.78125q0.78125 0.921875 1.84375 0.921875q1.078125 0 1.828125 -0.875q0.75 -0.890625 0.75 -2.6875q0 -1.984375 -0.765625 -2.90625q-0.765625 -0.9375 -1.890625 -0.9375q-1.078125 0 -1.8125 0.890625q-0.734375 0.890625 -0.734375 2.8125z" fill-rule="nonzero"/><path fill="#000000" fill-opacity="0.0" d="m327.19684 111.73491l-249.38582 -34.456696" fill-rule="evenodd"/><path stroke="#666666" stroke-width="1.0" stroke-linejoin="round" stroke-linecap="butt" d="m327.19684 111.73491l-243.44228 -33.635498" fill-rule="evenodd"/><path fill="#666666" stroke="#666666" stroke-width="1.0" stroke-linecap="butt" d="m83.98063 76.46322l-4.7214584 1.0150833l4.2693253 2.2573013z" fill-rule="evenodd"/><path fill="#000000" fill-opacity="0.0" d="m327.19684 111.73491l261.29132 -34.456696" fill-rule="evenodd"/><path stroke="#666666" stroke-width="1.0" stroke-linejoin="round" stroke-linecap="butt" d="m327.19684 111.73491l255.34283 -33.672264" fill-rule="evenodd"/><path fill="#666666" stroke="#666666" stroke-width="1.0" stroke-linecap="butt" d="m582.7556 79.7002l4.283203 -2.2308578l-4.715088 -1.0442505z" fill-rule="evenodd"/><path fill="#000000" fill-opacity="0.0" d="m111.29921 78.36483l151.49608 0l0 32.283463l-151.49608 0z" fill-rule="evenodd"/><path fill="#000000" d="m124.783585 105.37858q-1.21875 0 -2.3125 -0.34375q-1.078125 -0.34375 -1.6875 -0.875l0.59375 -1.046875q0.59375 0.453125 1.53125 0.78125q0.9375 0.328125 1.96875 0.328125q1.390625 0 2.0 -0.4375q0.625 -0.4375 0.625 -1.171875q0 -0.53125 -0.34375 -0.84375q-0.34375 -0.3125 -0.90625 -0.46875q-0.5625 -0.15625 -1.25 -0.265625q-0.6875 -0.109375 -1.375 -0.265625q-0.671875 -0.15625 -1.234375 -0.4375q-0.5625 -0.296875 -0.90625 -0.796875q-0.34375 -0.5 -0.34375 -1.34375q0 -0.796875 0.4375 -1.421875q0.453125 -0.640625 1.3125 -1.0q0.875 -0.375 2.125 -0.375q0.953125 0 1.90625 0.25q0.953125 0.25 1.5625 0.671875l-0.578125 1.0625q-0.65625 -0.453125 -1.40625 -0.640625q-0.734375 -0.203125 -1.484375 -0.203125q-1.328125 0 -1.953125 0.46875q-0.625 0.453125 -0.625 1.15625q0 0.5625 0.34375 0.875q0.34375 0.3125 0.90625 0.5q0.578125 0.171875 1.25 0.28125q0.6875 0.109375 1.375 0.28125q0.6875 0.15625 1.25 0.421875q0.5625 0.265625 0.90625 0.765625q0.359375 0.5 0.359375 1.296875q0 0.859375 -0.484375 1.484375q-0.46875 0.625 -1.375 0.96875q-0.90625 0.34375 -2.1875 0.34375zm10.619873 0q-1.515625 0 -2.671875 -0.640625q-1.15625 -0.640625 -1.8125 -1.765625q-0.65625 -1.140625 -0.65625 -2.59375q0 -1.453125 0.625 -2.5625q0.625 -1.125 1.71875 -1.765625q1.09375 -0.65625 2.453125 -0.65625q1.375 0 2.4375 0.625q1.078125 0.625 1.6875 1.765625q0.625 1.125 0.625 2.59375q0 0.09375 -0.015625 0.203125q0 0.09375 0 0.203125l-8.53125 0l0 -0.984375l7.828125 0l-0.53125 0.390625q0 -1.0625 -0.453125 -1.890625q-0.453125 -0.828125 -1.25 -1.296875q-0.78125 -0.46875 -1.796875 -0.46875q-1.015625 0 -1.8125 0.46875q-0.796875 0.46875 -1.25 1.3125q-0.453125 0.828125 -0.453125 1.90625l0 0.21875q0 1.109375 0.5 1.96875q0.5 0.84375 1.375 1.328125q0.890625 0.46875 2.03125 0.46875q0.890625 0 1.65625 -0.3125q0.78125 -0.328125 1.34375 -0.984375l0.75 0.859375q-0.65625 0.78125 -1.640625 1.203125q-0.96875 0.40625 -2.15625 0.40625zm7.1121216 -0.09375l0 -9.796875l1.265625 0l0 2.671875l-0.125 -0.46875q0.40625 -1.125 1.375 -1.703125q0.96875 -0.59375 2.40625 -0.59375l0 1.296875q-0.0625 0 -0.140625 -0.015625q-0.078125 -0.015625 -0.15625 -0.015625q-1.546875 0 -2.421875 0.953125q-0.875 0.9375 -0.875 2.671875l0 5.0l-1.328125 0zm10.276779 0l-4.34375 -9.796875l1.390625 0l3.984375 9.09375l-0.65625 0l4.046875 -9.09375l1.3125 0l-4.359375 9.796875l-1.375 0zm7.5960693 0l0 -9.796875l1.328125 0l0 9.796875l-1.328125 0zm0.671875 -11.953125q-0.40625 0 -0.6875 -0.28125q-0.28125 -0.28125 -0.28125 -0.671875q0 -0.390625 0.28125 -0.65625q0.28125 -0.28125 0.6875 -0.28125q0.40625 0 0.6875 0.265625q0.28125 0.25 0.28125 0.65625q0 0.40625 -0.265625 0.6875q-0.265625 0.28125 -0.703125 0.28125zm8.409164 12.046875q-1.453125 0 -2.59375 -0.640625q-1.140625 -0.640625 -1.796875 -1.765625q-0.65625 -1.140625 -0.65625 -2.59375q0 -1.46875 0.65625 -2.59375q0.65625 -1.125 1.796875 -1.75q1.140625 -0.640625 2.59375 -0.640625q1.25 0 2.25 0.484375q1.015625 0.484375 1.59375 1.453125l-0.984375 0.671875q-0.5 -0.734375 -1.25 -1.09375q-0.75 -0.359375 -1.625 -0.359375q-1.046875 0 -1.890625 0.484375q-0.828125 0.46875 -1.3125 1.328125q-0.484375 0.859375 -0.484375 2.015625q0 1.15625 0.484375 2.015625q0.484375 0.859375 1.3125 1.34375q0.84375 0.46875 1.890625 0.46875q0.875 0 1.625 -0.359375q0.75 -0.359375 1.25 -1.078125l0.984375 0.671875q-0.578125 0.953125 -1.59375 1.453125q-1.0 0.484375 -2.25 0.484375zm10.4292145 0q-1.515625 0 -2.671875 -0.640625q-1.15625 -0.640625 -1.8125 -1.765625q-0.65625 -1.140625 -0.65625 -2.59375q0 -1.453125 0.625 -2.5625q0.625 -1.125 1.71875 -1.765625q1.09375 -0.65625 2.453125 -0.65625q1.375 0 2.4375 0.625q1.078125 0.625 1.6875 1.765625q0.625 1.125 0.625 2.59375q0 0.09375 -0.015625 0.203125q0 0.09375 0 0.203125l-8.53125 0l0 -0.984375l7.828125 0l-0.53125 0.390625q0 -1.0625 -0.453125 -1.890625q-0.453125 -0.828125 -1.25 -1.296875q-0.78125 -0.46875 -1.796875 -0.46875q-1.015625 0 -1.8125 0.46875q-0.796875 0.46875 -1.25 1.3125q-0.453125 0.828125 -0.453125 1.90625l0 0.21875q0 1.109375 0.5 1.96875q0.5 0.84375 1.375 1.328125q0.890625 0.46875 2.03125 0.46875q0.890625 0 1.65625 -0.3125q0.78125 -0.328125 1.34375 -0.984375l0.75 0.859375q-0.65625 0.78125 -1.640625 1.203125q-0.96875 0.40625 -2.15625 0.40625zm17.000061 -9.984375q1.203125 0 2.09375 0.46875q0.90625 0.453125 1.421875 1.390625q0.515625 0.921875 0.515625 2.34375l0 5.6875l-1.328125 0l0 -5.5625q0 -1.546875 -0.78125 -2.328125q-0.765625 -0.796875 -2.15625 -0.796875q-1.046875 0 -1.828125 0.421875q-0.765625 0.40625 -1.1875 1.203125q-0.421875 0.796875 -0.421875 1.90625l0 5.15625l-1.328125 0l0 -13.84375l1.328125 0l0 6.734375l-0.265625 -0.5q0.46875 -1.0625 1.484375 -1.671875q1.03125 -0.609375 2.453125 -0.609375zm11.767883 9.984375q-1.515625 0 -2.671875 -0.640625q-1.15625 -0.640625 -1.8125 -1.765625q-0.65625 -1.140625 -0.65625 -2.59375q0 -1.453125 0.625 -2.5625q0.625 -1.125 1.71875 -1.765625q1.09375 -0.65625 2.453125 -0.65625q1.375 0 2.4375 0.625q1.078125 0.625 1.6875 1.765625q0.625 1.125 0.625 2.59375q0 0.09375 -0.015625 0.203125q0 0.09375 0 0.203125l-8.53125 0l0 -0.984375l7.828125 0l-0.53125 0.390625q0 -1.0625 -0.453125 -1.890625q-0.453125 -0.828125 -1.25 -1.296875q-0.78125 -0.46875 -1.796875 -0.46875q-1.015625 0 -1.8125 0.46875q-0.796875 0.46875 -1.25 1.3125q-0.453125 0.828125 -0.453125 1.90625l0 0.21875q0 1.109375 0.5 1.96875q0.5 0.84375 1.375 1.328125q0.890625 0.46875 2.03125 0.46875q0.890625 0 1.65625 -0.3125q0.78125 -0.328125 1.34375 -0.984375l0.75 0.859375q-0.65625 0.78125 -1.640625 1.203125q-0.96875 0.40625 -2.15625 0.40625zm7.1121216 -0.09375l0 -13.84375l1.328125 0l0 13.84375l-1.328125 0zm5.0185394 0l0 -13.84375l1.328125 0l0 13.84375l-1.328125 0zm9.018539 0.09375q-1.421875 0 -2.546875 -0.640625q-1.125 -0.640625 -1.78125 -1.765625q-0.65625 -1.140625 -0.65625 -2.59375q0 -1.46875 0.65625 -2.59375q0.65625 -1.125 1.765625 -1.75q1.125 -0.640625 2.5625 -0.640625q1.453125 0 2.578125 0.640625q1.125 0.625 1.765625 1.75q0.65625 1.125 0.65625 2.59375q0 1.453125 -0.65625 2.59375q-0.640625 1.125 -1.78125 1.765625q-1.125 0.640625 -2.5625 0.640625zm0 -1.171875q1.0625 0 1.875 -0.46875q0.828125 -0.484375 1.296875 -1.34375q0.484375 -0.875 0.484375 -2.015625q0 -1.15625 -0.484375 -2.015625q-0.46875 -0.859375 -1.296875 -1.328125q-0.8125 -0.484375 -1.859375 -0.484375q-1.046875 0 -1.875 0.484375q-0.8125 0.46875 -1.296875 1.328125q-0.484375 0.859375 -0.484375 2.015625q0 1.140625 0.484375 2.015625q0.484375 0.859375 1.296875 1.34375q0.828125 0.46875 1.859375 0.46875z" fill-rule="nonzero"/><path fill="#000000" fill-opacity="0.0" d="m396.52756 72.73097l151.49606 0l0 32.283463l-151.49606 0z" fill-rule="evenodd"/><path fill="#000000" d="m410.01193 99.74472q-1.21875 0 -2.3125 -0.34375q-1.078125 -0.34375 -1.6875 -0.875l0.59375 -1.046875q0.59375 0.453125 1.53125 0.78125q0.9375 0.328125 1.96875 0.328125q1.390625 0 2.0 -0.4375q0.625 -0.4375 0.625 -1.171875q0 -0.53125 -0.34375 -0.84375q-0.34375 -0.3125 -0.90625 -0.46875q-0.5625 -0.15625 -1.25 -0.265625q-0.6875 -0.109375 -1.375 -0.265625q-0.671875 -0.15625 -1.234375 -0.4375q-0.5625 -0.296875 -0.90625 -0.796875q-0.34375 -0.5 -0.34375 -1.34375q0 -0.796875 0.4375 -1.421875q0.453125 -0.640625 1.3125 -1.0q0.875 -0.375 2.125 -0.375q0.953125 0 1.90625 0.25q0.953125 0.25 1.5625 0.671875l-0.578125 1.0625q-0.65625 -0.453125 -1.40625 -0.640625q-0.734375 -0.203125 -1.484375 -0.203125q-1.328125 0 -1.953125 0.46875q-0.625 0.453125 -0.625 1.15625q0 0.5625 0.34375 0.875q0.34375 0.3125 0.90625 0.5q0.578125 0.171875 1.25 0.28125q0.6875 0.109375 1.375 0.28125q0.6875 0.15625 1.25 0.421875q0.5625 0.265625 0.90625 0.765625q0.359375 0.5 0.359375 1.296875q0 0.859375 -0.484375 1.484375q-0.46875 0.625 -1.375 0.96875q-0.90625 0.34375 -2.1875 0.34375zm10.619873 0q-1.515625 0 -2.671875 -0.640625q-1.15625 -0.640625 -1.8125 -1.765625q-0.65625 -1.140625 -0.65625 -2.59375q0 -1.453125 0.625 -2.5625q0.625 -1.125 1.71875 -1.765625q1.09375 -0.65625 2.453125 -0.65625q1.375 0 2.4375 0.625q1.078125 0.625 1.6875 1.765625q0.625 1.125 0.625 2.59375q0 0.09375 -0.015625 0.203125q0 0.09375 0 0.203125l-8.53125 0l0 -0.984375l7.828125 0l-0.53125 0.390625q0 -1.0625 -0.453125 -1.890625q-0.453125 -0.828125 -1.25 -1.296875q-0.78125 -0.46875 -1.796875 -0.46875q-1.015625 0 -1.8125 0.46875q-0.796875 0.46875 -1.25 1.3125q-0.453125 0.828125 -0.453125 1.90625l0 0.21875q0 1.109375 0.5 1.96875q0.5 0.84375 1.375 1.328125q0.890625 0.46875 2.03125 0.46875q0.890625 0 1.65625 -0.3125q0.78125 -0.328125 1.34375 -0.984375l0.75 0.859375q-0.65625 0.78125 -1.640625 1.203125q-0.96875 0.40625 -2.15625 0.40625zm7.1121216 -0.09375l0 -9.796875l1.265625 0l0 2.671875l-0.125 -0.46875q0.40625 -1.125 1.375 -1.703125q0.96875 -0.59375 2.40625 -0.59375l0 1.296875q-0.0625 0 -0.140625 -0.015625q-0.078125 -0.015625 -0.15625 -0.015625q-1.546875 0 -2.421875 0.953125q-0.875 0.9375 -0.875 2.671875l0 5.0l-1.328125 0zm10.276794 0l-4.34375 -9.796875l1.390625 0l3.984375 9.09375l-0.65625 0l4.046875 -9.09375l1.3125 0l-4.359375 9.796875l-1.375 0zm7.5960693 0l0 -9.796875l1.328125 0l0 9.796875l-1.328125 0zm0.671875 -11.953125q-0.40625 0 -0.6875 -0.28125q-0.28125 -0.28125 -0.28125 -0.671875q0 -0.390625 0.28125 -0.65625q0.28125 -0.28125 0.6875 -0.28125q0.40625 0 0.6875 0.265625q0.28125 0.25 0.28125 0.65625q0 0.40625 -0.265625 0.6875q-0.265625 0.28125 -0.703125 0.28125zm8.409149 12.046875q-1.453125 0 -2.59375 -0.640625q-1.140625 -0.640625 -1.796875 -1.765625q-0.65625 -1.140625 -0.65625 -2.59375q0 -1.46875 0.65625 -2.59375q0.65625 -1.125 1.796875 -1.75q1.140625 -0.640625 2.59375 -0.640625q1.25 0 2.25 0.484375q1.015625 0.484375 1.59375 1.453125l-0.984375 0.671875q-0.5 -0.734375 -1.25 -1.09375q-0.75 -0.359375 -1.625 -0.359375q-1.046875 0 -1.890625 0.484375q-0.828125 0.46875 -1.3125 1.328125q-0.484375 0.859375 -0.484375 2.015625q0 1.15625 0.484375 2.015625q0.484375 0.859375 1.3125 1.34375q0.84375 0.46875 1.890625 0.46875q0.875 0 1.625 -0.359375q0.75 -0.359375 1.25 -1.078125l0.984375 0.671875q-0.578125 0.953125 -1.59375 1.453125q-1.0 0.484375 -2.25 0.484375zm10.42923 0q-1.515625 0 -2.671875 -0.640625q-1.15625 -0.640625 -1.8125 -1.765625q-0.65625 -1.140625 -0.65625 -2.59375q0 -1.453125 0.625 -2.5625q0.625 -1.125 1.71875 -1.765625q1.09375 -0.65625 2.453125 -0.65625q1.375 0 2.4375 0.625q1.078125 0.625 1.6875 1.765625q0.625 1.125 0.625 2.59375q0 0.09375 -0.015625 0.203125q0 0.09375 0 0.203125l-8.53125 0l0 -0.984375l7.828125 0l-0.53125 0.390625q0 -1.0625 -0.453125 -1.890625q-0.453125 -0.828125 -1.25 -1.296875q-0.78125 -0.46875 -1.796875 -0.46875q-1.015625 0 -1.8125 0.46875q-0.796875 0.46875 -1.25 1.3125q-0.453125 0.828125 -0.453125 1.90625l0 0.21875q0 1.109375 0.5 1.96875q0.5 0.84375 1.375 1.328125q0.890625 0.46875 2.03125 0.46875q0.890625 0 1.65625 -0.3125q0.78125 -0.328125 1.34375 -0.984375l0.75 0.859375q-0.65625 0.78125 -1.640625 1.203125q-0.96875 0.40625 -2.15625 0.40625zm18.140686 -0.09375l0 -2.171875l-0.0625 -0.34375l0 -3.625q0 -1.25 -0.703125 -1.921875q-0.6875 -0.671875 -2.0625 -0.671875q-0.953125 0 -1.8125 0.328125q-0.859375 0.3125 -1.453125 0.828125l-0.609375 -0.984375q0.75 -0.640625 1.796875 -0.984375q1.046875 -0.34375 2.203125 -0.34375q1.90625 0 2.9375 0.953125q1.03125 0.9375 1.03125 2.859375l0 6.078125l-1.265625 0zm-3.375 0.09375q-1.109375 0 -1.921875 -0.359375q-0.796875 -0.375 -1.234375 -1.015625q-0.421875 -0.640625 -0.421875 -1.484375q0 -0.765625 0.359375 -1.390625q0.359375 -0.625 1.1875 -1.0q0.84375 -0.390625 2.234375 -0.390625l3.375 0l0 1.0l-3.34375 0q-1.40625 0 -1.96875 0.5q-0.546875 0.5 -0.546875 1.25q0 0.84375 0.65625 1.34375q0.65625 0.5 1.828125 0.5q1.125 0 1.9375 -0.515625q0.8125 -0.515625 1.171875 -1.484375l0.3125 0.921875q-0.375 0.96875 -1.3125 1.546875q-0.921875 0.578125 -2.3125 0.578125zm12.288422 0q-1.25 0 -2.1875 -0.46875q-0.921875 -0.46875 -1.4375 -1.390625q-0.515625 -0.9375 -0.515625 -2.34375l0 -5.6875l1.328125 0l0 5.546875q0 1.5625 0.765625 2.359375q0.78125 0.796875 2.1875 0.796875q1.015625 0 1.765625 -0.421875q0.765625 -0.421875 1.15625 -1.21875q0.40625 -0.8125 0.40625 -1.9375l0 -5.125l1.328125 0l0 9.796875l-1.265625 0l0 -2.6875l0.203125 0.484375q-0.46875 1.078125 -1.453125 1.6875q-0.96875 0.609375 -2.28125 0.609375zm11.583893 0q-1.375 0 -2.125 -0.75q-0.734375 -0.75 -0.734375 -2.109375l0 -9.1875l1.3125 0l0 9.125q0 0.84375 0.4375 1.3125q0.4375 0.46875 1.265625 0.46875q0.875 0 1.453125 -0.5l0.46875 0.953125q-0.390625 0.34375 -0.953125 0.515625q-0.546875 0.171875 -1.125 0.171875zm-4.625 -8.78125l0 -1.109375l6.0625 0l0 1.109375l-6.0625 0zm14.105682 -1.203125q1.203125 0 2.09375 0.46875q0.90625 0.453125 1.421875 1.390625q0.515625 0.921875 0.515625 2.34375l0 5.6875l-1.328125 0l0 -5.5625q0 -1.546875 -0.78125 -2.328125q-0.765625 -0.796875 -2.15625 -0.796875q-1.046875 0 -1.828125 0.421875q-0.765625 0.40625 -1.1875 1.203125q-0.421875 0.796875 -0.421875 1.90625l0 5.15625l-1.328125 0l0 -13.84375l1.328125 0l0 6.734375l-0.265625 -0.5q0.46875 -1.0625 1.484375 -1.671875q1.03125 -0.609375 2.453125 -0.609375z" fill-rule="nonzero"/><path fill="#cccccc" d="m237.02362 233.82677l180.34647 0l0 54.61418l-180.34647 0z" fill-rule="evenodd"/><path stroke="#666666" stroke-width="1.0" stroke-linejoin="round" stroke-linecap="butt" d="m237.02362 233.82677l180.34647 0l0 54.61418l-180.34647 0z" fill-rule="evenodd"/><path fill="#000000" d="m247.383 268.05386l0 -13.359375l1.78125 0l0 11.78125l6.5625 0l0 1.578125l-8.34375 0zm9.641357 -4.84375q0 -2.6875 1.484375 -3.96875q1.25 -1.078125 3.046875 -1.078125q2.0 0 3.265625 1.3125q1.265625 1.296875 1.265625 3.609375q0 1.859375 -0.5625 2.9375q-0.5625 1.0625 -1.640625 1.65625q-1.0625 0.59375 -2.328125 0.59375q-2.03125 0 -3.28125 -1.296875q-1.25 -1.3125 -1.25 -3.765625zm1.6875 0q0 1.859375 0.796875 2.796875q0.8125 0.921875 2.046875 0.921875q1.21875 0 2.03125 -0.921875q0.8125 -0.9375 0.8125 -2.84375q0 -1.796875 -0.8125 -2.71875q-0.8125 -0.921875 -2.03125 -0.921875q-1.234375 0 -2.046875 0.921875q-0.796875 0.90625 -0.796875 2.765625zm15.610077 3.65625q-0.921875 0.765625 -1.765625 1.09375q-0.828125 0.3125 -1.796875 0.3125q-1.59375 0 -2.453125 -0.78125q-0.859375 -0.78125 -0.859375 -1.984375q0 -0.71875 0.328125 -1.296875q0.328125 -0.59375 0.84375 -0.9375q0.53125 -0.359375 1.1875 -0.546875q0.46875 -0.125 1.453125 -0.25q1.984375 -0.234375 2.921875 -0.5625q0.015625 -0.34375 0.015625 -0.421875q0 -1.0 -0.46875 -1.421875q-0.625 -0.546875 -1.875 -0.546875q-1.15625 0 -1.703125 0.40625q-0.546875 0.40625 -0.8125 1.421875l-1.609375 -0.21875q0.21875 -1.015625 0.71875 -1.640625q0.5 -0.640625 1.453125 -0.984375q0.953125 -0.34375 2.1875 -0.34375q1.25 0 2.015625 0.296875q0.78125 0.28125 1.140625 0.734375q0.375 0.4375 0.515625 1.109375q0.078125 0.421875 0.078125 1.515625l0 2.1875q0 2.28125 0.109375 2.890625q0.109375 0.59375 0.40625 1.15625l-1.703125 0q-0.265625 -0.515625 -0.328125 -1.1875zm-0.140625 -3.671875q-0.890625 0.375 -2.671875 0.625q-1.015625 0.140625 -1.4375 0.328125q-0.421875 0.1875 -0.65625 0.53125q-0.21875 0.34375 -0.21875 0.78125q0 0.65625 0.5 1.09375q0.5 0.4375 1.453125 0.4375q0.9375 0 1.671875 -0.40625q0.75 -0.421875 1.09375 -1.140625q0.265625 -0.5625 0.265625 -1.640625l0 -0.609375zm10.469482 4.859375l0 -1.21875q-0.90625 1.4375 -2.703125 1.4375q-1.15625 0 -2.125 -0.640625q-0.96875 -0.640625 -1.5 -1.78125q-0.53125 -1.140625 -0.53125 -2.625q0 -1.453125 0.484375 -2.625q0.484375 -1.1875 1.4375 -1.8125q0.96875 -0.625 2.171875 -0.625q0.875 0 1.546875 0.375q0.6875 0.359375 1.109375 0.953125l0 -4.796875l1.640625 0l0 13.359375l-1.53125 0zm-5.171875 -4.828125q0 1.859375 0.78125 2.78125q0.78125 0.921875 1.84375 0.921875q1.078125 0 1.828125 -0.875q0.75 -0.890625 0.75 -2.6875q0 -1.984375 -0.765625 -2.90625q-0.765625 -0.9375 -1.890625 -0.9375q-1.078125 0 -1.8125 0.890625q-0.734375 0.890625 -0.734375 2.8125zm9.406952 4.828125l0 -13.359375l5.015625 0q1.53125 0 2.453125 0.40625q0.921875 0.40625 1.4375 1.25q0.53125 0.84375 0.53125 1.765625q0 0.859375 -0.46875 1.625q-0.453125 0.75 -1.390625 1.203125q1.203125 0.359375 1.859375 1.21875q0.65625 0.859375 0.65625 2.015625q0 0.9375 -0.40625 1.75q-0.390625 0.796875 -0.984375 1.234375q-0.578125 0.4375 -1.453125 0.671875q-0.875 0.21875 -2.15625 0.21875l-5.09375 0zm1.78125 -7.75l2.875 0q1.1875 0 1.6875 -0.140625q0.671875 -0.203125 1.015625 -0.671875q0.34375 -0.46875 0.34375 -1.171875q0 -0.65625 -0.328125 -1.15625q-0.3125 -0.515625 -0.90625 -0.703125q-0.59375 -0.1875 -2.03125 -0.1875l-2.65625 0l0 4.03125zm0 6.171875l3.3125 0q0.859375 0 1.203125 -0.0625q0.609375 -0.109375 1.015625 -0.359375q0.421875 -0.265625 0.6875 -0.75q0.265625 -0.484375 0.265625 -1.125q0 -0.75 -0.390625 -1.296875q-0.375 -0.546875 -1.0625 -0.765625q-0.671875 -0.234375 -1.953125 -0.234375l-3.078125 0l0 4.59375zm16.849823 0.390625q-0.921875 0.765625 -1.765625 1.09375q-0.828125 0.3125 -1.796875 0.3125q-1.59375 0 -2.453125 -0.78125q-0.859375 -0.78125 -0.859375 -1.984375q0 -0.71875 0.328125 -1.296875q0.328125 -0.59375 0.84375 -0.9375q0.53125 -0.359375 1.1875 -0.546875q0.46875 -0.125 1.453125 -0.25q1.984375 -0.234375 2.921875 -0.5625q0.015625 -0.34375 0.015625 -0.421875q0 -1.0 -0.46875 -1.421875q-0.625 -0.546875 -1.875 -0.546875q-1.15625 0 -1.703125 0.40625q-0.546875 0.40625 -0.8125 1.421875l-1.609375 -0.21875q0.21875 -1.015625 0.71875 -1.640625q0.5 -0.640625 1.453125 -0.984375q0.953125 -0.34375 2.1875 -0.34375q1.25 0 2.015625 0.296875q0.78125 0.28125 1.140625 0.734375q0.375 0.4375 0.515625 1.109375q0.078125 0.421875 0.078125 1.515625l0 2.1875q0 2.28125 0.109375 2.890625q0.109375 0.59375 0.40625 1.15625l-1.703125 0q-0.265625 -0.515625 -0.328125 -1.1875zm-0.140625 -3.671875q-0.890625 0.375 -2.671875 0.625q-1.015625 0.140625 -1.4375 0.328125q-0.421875 0.1875 -0.65625 0.53125q-0.21875 0.34375 -0.21875 0.78125q0 0.65625 0.5 1.09375q0.5 0.4375 1.453125 0.4375q0.9375 0 1.671875 -0.40625q0.75 -0.421875 1.09375 -1.140625q0.265625 -0.5625 0.265625 -1.640625l0 -0.609375zm4.1569824 4.859375l0 -13.359375l1.640625 0l0 13.359375l-1.640625 0zm10.504181 -1.1875q-0.921875 0.765625 -1.765625 1.09375q-0.828125 0.3125 -1.796875 0.3125q-1.59375 0 -2.453125 -0.78125q-0.859375 -0.78125 -0.859375 -1.984375q0 -0.71875 0.328125 -1.296875q0.328125 -0.59375 0.84375 -0.9375q0.53125 -0.359375 1.1875 -0.546875q0.46875 -0.125 1.453125 -0.25q1.984375 -0.234375 2.921875 -0.5625q0.015625 -0.34375 0.015625 -0.421875q0 -1.0 -0.46875 -1.421875q-0.625 -0.546875 -1.875 -0.546875q-1.15625 0 -1.703125 0.40625q-0.546875 0.40625 -0.8125 1.421875l-1.609375 -0.21875q0.21875 -1.015625 0.71875 -1.640625q0.5 -0.640625 1.453125 -0.984375q0.953125 -0.34375 2.1875 -0.34375q1.25 0 2.015625 0.296875q0.78125 0.28125 1.140625 0.734375q0.375 0.4375 0.515625 1.109375q0.078125 0.421875 0.078125 1.515625l0 2.1875q0 2.28125 0.109375 2.890625q0.109375 0.59375 0.40625 1.15625l-1.703125 0q-0.265625 -0.515625 -0.328125 -1.1875zm-0.140625 -3.671875q-0.890625 0.375 -2.671875 0.625q-1.015625 0.140625 -1.4375 0.328125q-0.421875 0.1875 -0.65625 0.53125q-0.21875 0.34375 -0.21875 0.78125q0 0.65625 0.5 1.09375q0.5 0.4375 1.453125 0.4375q0.9375 0 1.671875 -0.40625q0.75 -0.421875 1.09375 -1.140625q0.265625 -0.5625 0.265625 -1.640625l0 -0.609375zm4.2038574 4.859375l0 -9.671875l1.46875 0l0 1.375q1.0625 -1.59375 3.078125 -1.59375q0.875 0 1.609375 0.3125q0.734375 0.3125 1.09375 0.828125q0.375 0.5 0.515625 1.203125q0.09375 0.453125 0.09375 1.59375l0 5.953125l-1.640625 0l0 -5.890625q0 -1.0 -0.203125 -1.484375q-0.1875 -0.5 -0.671875 -0.796875q-0.484375 -0.296875 -1.140625 -0.296875q-1.046875 0 -1.8125 0.671875q-0.75 0.65625 -0.75 2.515625l0 5.28125l-1.640625 0zm16.688202 -3.546875l1.609375 0.21875q-0.265625 1.65625 -1.359375 2.609375q-1.078125 0.9375 -2.671875 0.9375q-1.984375 0 -3.1875 -1.296875q-1.203125 -1.296875 -1.203125 -3.71875q0 -1.578125 0.515625 -2.75q0.515625 -1.171875 1.578125 -1.75q1.0625 -0.59375 2.3125 -0.59375q1.578125 0 2.578125 0.796875q1.0 0.796875 1.28125 2.265625l-1.59375 0.234375q-0.234375 -0.96875 -0.8125 -1.453125q-0.578125 -0.5 -1.390625 -0.5q-1.234375 0 -2.015625 0.890625q-0.78125 0.890625 -0.78125 2.8125q0 1.953125 0.75 2.84375q0.75 0.875 1.953125 0.875q0.96875 0 1.609375 -0.59375q0.65625 -0.59375 0.828125 -1.828125zm9.640625 0.4375l1.6875 0.203125q-0.40625 1.484375 -1.484375 2.3125q-1.078125 0.8125 -2.765625 0.8125q-2.125 0 -3.375 -1.296875q-1.234375 -1.3125 -1.234375 -3.671875q0 -2.453125 1.25 -3.796875q1.265625 -1.34375 3.265625 -1.34375q1.9375 0 3.15625 1.328125q1.234375 1.3125 1.234375 3.703125q0 0.15625 0 0.4375l-7.21875 0q0.09375 1.59375 0.90625 2.453125q0.8125 0.84375 2.015625 0.84375q0.90625 0 1.546875 -0.46875q0.640625 -0.484375 1.015625 -1.515625zm-5.390625 -2.65625l5.40625 0q-0.109375 -1.21875 -0.625 -1.828125q-0.78125 -0.953125 -2.03125 -0.953125q-1.125 0 -1.90625 0.765625q-0.765625 0.75 -0.84375 2.015625zm9.125732 5.765625l0 -9.671875l1.46875 0l0 1.46875q0.5625 -1.03125 1.03125 -1.359375q0.484375 -0.328125 1.0625 -0.328125q0.828125 0 1.6875 0.53125l-0.5625 1.515625q-0.609375 -0.359375 -1.203125 -0.359375q-0.546875 0 -0.96875 0.328125q-0.421875 0.328125 -0.609375 0.890625q-0.28125 0.875 -0.28125 1.921875l0 5.0625l-1.625 0z" fill-rule="nonzero"/><path fill="#000000" fill-opacity="0.0" d="m327.19684 233.82677l0 -44.7874" fill-rule="evenodd"/><path stroke="#666666" stroke-width="1.0" stroke-linejoin="round" stroke-linecap="butt" d="m327.19684 233.82677l0 -38.7874" fill-rule="evenodd"/><path fill="#666666" stroke="#666666" stroke-width="1.0" stroke-linecap="butt" d="m328.84857 195.03937l-1.6517334 -4.538101l-1.6517334 4.538101z" fill-rule="evenodd"/></g></svg>