<svg version="1.1" viewBox="0.0 0.0 604.0813648293963 310.20472440944883" fill="none" stroke="none" stroke-linecap="square" stroke-miterlimit="10" xmlns:xlink="http://www.w3.org/1999/xlink" xmlns="http://www.w3.org/2000/svg"><clipPath id="p.0"><path d="m0 0l604.08136 0l0 310.2047l-604.08136 0l0 -310.2047z" clip-rule="nonzero"/></clipPath><g clip-path="url(#p.0)"><path fill="#000000" fill-opacity="0.0" d="m0 0l604.08136 0l0 310.2047l-604.08136 0z" fill-rule="evenodd"/><path fill="#000000" fill-opacity="0.0" d="m380.97583 251.52493l134.64569 0l0 46.519684l-134.64569 0z" fill-rule="evenodd"/><path fill="#000000" d="m400.25958 270.87744l0.09375 1.421875q1.359375 -1.65625 3.65625 -1.65625q2.4375 0 3.359375 1.9375q1.328125 -1.9375 3.8125 -1.9375q2.0625 0 3.0625 1.203125q1.015625 1.203125 1.015625 3.625l0 8.09375l-3.40625 0l0 -8.09375q0 -1.078125 -0.421875 -1.5625q-0.421875 -0.5 -1.484375 -0.5q-1.53125 0 -2.109375 1.453125l0.015625 8.703125l-3.390625 0l0 -8.078125q0 -1.09375 -0.4375 -1.578125q-0.4375 -0.5 -1.46875 -0.5q-1.453125 0 -2.09375 1.1875l0 8.96875l-3.390625 0l0 -12.6875l3.1875 0zm24.949219 12.6875q-0.234375 -0.453125 -0.34375 -1.140625q-1.234375 1.375 -3.203125 1.375q-1.859375 0 -3.09375 -1.078125q-1.21875 -1.078125 -1.21875 -2.71875q0 -2.015625 1.484375 -3.09375q1.5 -1.078125 4.328125 -1.09375l1.5625 0l0 -0.71875q0 -0.890625 -0.453125 -1.40625q-0.453125 -0.53125 -1.421875 -0.53125q-0.859375 0 -1.34375 0.40625q-0.484375 0.40625 -0.484375 1.125l-3.390625 0q0 -1.09375 0.671875 -2.03125q0.6875 -0.9375 1.921875 -1.46875q1.25 -0.546875 2.796875 -0.546875q2.34375 0 3.71875 1.1875q1.375 1.171875 1.375 3.3125l0 5.484375q0.015625 1.8125 0.515625 2.734375l0 0.203125l-3.421875 0zm-2.8125 -2.359375q0.75 0 1.375 -0.328125q0.640625 -0.34375 0.953125 -0.90625l0 -2.171875l-1.265625 0q-2.546875 0 -2.703125 1.75l-0.015625 0.203125q0 0.640625 0.4375 1.046875q0.453125 0.40625 1.21875 0.40625zm15.1953125 -1.140625q0 -0.625 -0.625 -0.984375q-0.609375 -0.359375 -1.96875 -0.640625q-4.515625 -0.953125 -4.515625 -3.84375q0 -1.6875 1.390625 -2.8125q1.40625 -1.140625 3.671875 -1.140625q2.40625 0 3.84375 1.140625q1.453125 1.140625 1.453125 2.953125l-3.375 0q0 -0.71875 -0.46875 -1.1875q-0.46875 -0.484375 -1.46875 -0.484375q-0.859375 0 -1.328125 0.390625q-0.46875 0.375 -0.46875 0.984375q0 0.5625 0.53125 0.90625q0.53125 0.34375 1.796875 0.59375q1.265625 0.25 2.140625 0.5625q2.6875 0.984375 2.6875 3.421875q0 1.734375 -1.5 2.8125q-1.484375 1.0625 -3.84375 1.0625q-1.59375 0 -2.828125 -0.5625q-1.234375 -0.578125 -1.9375 -1.5625q-0.703125 -1.0 -0.703125 -2.140625l3.21875 0q0.046875 0.90625 0.65625 1.390625q0.625 0.46875 1.671875 0.46875q0.96875 0 1.46875 -0.359375q0.5 -0.375 0.5 -0.96875zm9.527344 -12.296875l0 3.109375l2.171875 0l0 2.484375l-2.171875 0l0 6.328125q0 0.703125 0.265625 1.015625q0.265625 0.296875 1.03125 0.296875q0.5625 0 1.0 -0.078125l0 2.5625q-1.0 0.3125 -2.046875 0.3125q-3.5625 0 -3.640625 -3.59375l0 -6.84375l-1.84375 0l0 -2.484375l1.84375 0l0 -3.109375l3.390625 0zm9.890625 16.03125q-2.796875 0 -4.546875 -1.703125q-1.75 -1.71875 -1.75 -4.5625l0 -0.328125q0 -1.921875 0.734375 -3.421875q0.75 -1.5 2.09375 -2.3125q1.359375 -0.828125 3.09375 -0.828125q2.59375 0 4.09375 1.640625q1.5 1.640625 1.5 4.65625l0 1.390625l-8.078125 0q0.15625 1.234375 0.984375 1.984375q0.828125 0.75 2.09375 0.75q1.953125 0 3.0625 -1.421875l1.65625 1.875q-0.75 1.078125 -2.0625 1.6875q-1.296875 0.59375 -2.875 0.59375zm-0.390625 -10.40625q-1.0 0 -1.640625 0.6875q-0.625 0.671875 -0.796875 1.9375l4.71875 0l0 -0.265625q-0.03125 -1.125 -0.625 -1.734375q-0.578125 -0.625 -1.65625 -0.625zm14.644531 0.671875q-0.6875 -0.09375 -1.21875 -0.09375q-1.921875 0 -2.515625 1.296875l0 8.296875l-3.390625 0l0 -12.6875l3.203125 0l0.09375 1.515625q1.015625 -1.75 2.828125 -1.75q0.5625 0 1.046875 0.15625l-0.046875 3.265625zm1.7851562 2.5625q0 -2.6875 0.71875 -5.109375q0.71875 -2.421875 2.109375 -4.296875q1.390625 -1.875 3.015625 -2.59375l0.65625 1.828125q-1.703125 1.265625 -2.671875 3.921875q-0.953125 2.640625 -0.953125 6.171875l0 0.375q0 3.546875 0.9375 6.21875q0.953125 2.65625 2.6875 3.96875l-0.65625 1.78125q-1.59375 -0.703125 -2.96875 -2.515625q-1.375 -1.8125 -2.109375 -4.171875q-0.71875 -2.375 -0.765625 -4.953125l0 -0.625zm15.144531 3.4375q0 -0.625 -0.625 -0.984375q-0.609375 -0.359375 -1.96875 -0.640625q-4.515625 -0.953125 -4.515625 -3.84375q0 -1.6875 1.390625 -2.8125q1.40625 -1.140625 3.671875 -1.140625q2.40625 0 3.84375 1.140625q1.453125 1.140625 1.453125 2.953125l-3.375 0q0 -0.71875 -0.46875 -1.1875q-0.46875 -0.484375 -1.46875 -0.484375q-0.859375 0 -1.328125 0.390625q-0.46875 0.375 -0.46875 0.984375q0 0.5625 0.53125 0.90625q0.53125 0.34375 1.796875 0.59375q1.265625 0.25 2.140625 0.5625q2.6875 0.984375 2.6875 3.421875q0 1.734375 -1.5 2.8125q-1.484375 1.0625 -3.84375 1.0625q-1.59375 0 -2.828125 -0.5625q-1.234375 -0.578125 -1.9375 -1.5625q-0.703125 -1.0 -0.703125 -2.140625l3.21875 0q0.046875 0.90625 0.65625 1.390625q0.625 0.46875 1.671875 0.46875q0.96875 0 1.46875 -0.359375q0.5 -0.375 0.5 -0.96875zm11.308594 -3.171875q0 2.65625 -0.765625 5.109375q-0.765625 2.4375 -2.203125 4.3125q-1.421875 1.875 -3.046875 2.578125l-0.65625 -1.78125q1.671875 -1.265625 2.625 -3.875q0.96875 -2.609375 1.0 -6.015625l0 -0.625q0 -3.5 -0.953125 -6.171875q-0.953125 -2.671875 -2.671875 -4.0l0.65625 -1.796875q1.59375 0.6875 3.0 2.515625q1.421875 1.8125 2.203125 4.234375q0.78125 2.40625 0.8125 4.984375l0 0.53125z" fill-rule="nonzero"/><path fill="#000000" fill-opacity="0.0" d="m12.551941 183.32721l134.64568 0l0 46.519684l-134.64568 0z" fill-rule="evenodd"/><path fill="#000000" d="m51.37282 202.67972l0.109375 1.46875q1.359375 -1.703125 3.640625 -1.703125q2.015625 0 3.0 1.1875q0.984375 1.1875 1.0 3.546875l0 8.1875l-3.375 0l0 -8.109375q0 -1.078125 -0.46875 -1.5625q-0.46875 -0.484375 -1.5625 -0.484375q-1.4375 0 -2.140625 1.21875l0 8.9375l-3.390625 0l0 -12.6875l3.1875 0zm9.800781 6.234375q0 -1.890625 0.71875 -3.359375q0.734375 -1.484375 2.09375 -2.296875q1.3593788 -0.8125 3.1718788 -0.8125q2.5625 0 4.1875 1.578125q1.625 1.5625 1.8125 4.265625l0.015625 0.859375q0 2.921875 -1.625 4.6875q-1.625 1.765625 -4.375 1.765625q-2.734375 0 -4.375004 -1.75q-1.625 -1.765625 -1.625 -4.796875l0 -0.140625zm3.3750038 0.234375q0 1.8125 0.671875 2.765625q0.6875 0.953125 1.953125 0.953125q1.234375 0 1.921875 -0.9375q0.703125 -0.953125 0.703125 -3.015625q0 -1.78125 -0.703125 -2.75q-0.6875 -0.96875 -1.9375 -0.96875q-1.25 0 -1.9375 0.96875q-0.671875 0.96875 -0.671875 2.984375zm10.1953125 -0.21875q0 -2.96875 1.328125 -4.71875q1.3281174 -1.765625 3.6406174 -1.765625q1.84375 0 3.046875 1.390625l0 -6.46875l3.40625 0l0 18.0l-3.0625 0l-0.15625 -1.34375q-1.265625 1.578125 -3.265625 1.578125q-2.234375 0 -3.5937424 -1.765625q-1.34375 -1.765625 -1.34375 -4.90625zm3.3749924 0.25q0 1.78125 0.625 2.734375q0.625 0.9375 1.8125 0.9375q1.5625 0 2.203125 -1.3125l0 -5.015625q-0.625 -1.3125 -2.1875 -1.3125q-2.453125 0 -2.453125 3.96875zm16.507812 6.421875q-2.796875 0 -4.546875 -1.703125q-1.75 -1.71875 -1.75 -4.5625l0 -0.328125q0 -1.921875 0.734375 -3.421875q0.75 -1.5 2.09375 -2.3125q1.359375 -0.828125 3.09375 -0.828125q2.59375 0 4.09375 1.640625q1.5 1.640625 1.5 4.65625l0 1.390625l-8.078125 0q0.15625 1.234375 0.984375 1.984375q0.828125 0.75 2.09375 0.75q1.953125 0 3.0625 -1.421875l1.65625 1.875q-0.75 1.078125 -2.0625 1.6875q-1.296875 0.59375 -2.875 0.59375zm-0.390625 -10.40625q-1.0 0 -1.640625 0.6875q-0.625 0.671875 -0.796875 1.9375l4.71875 0l0 -0.265625q-0.03125 -1.125 -0.625 -1.734375q-0.578125 -0.625 -1.65625 -0.625zm14.394531 6.671875q0 -0.625 -0.625 -0.984375q-0.609375 -0.359375 -1.96875 -0.640625q-4.515625 -0.953125 -4.515625 -3.84375q0 -1.6875 1.390625 -2.8125q1.40625 -1.140625 3.671875 -1.140625q2.40625 0 3.84375 1.140625q1.453125 1.140625 1.453125 2.953125l-3.375 0q0 -0.71875 -0.46875 -1.1875q-0.46875 -0.484375 -1.46875 -0.484375q-0.859375 0 -1.328125 0.390625q-0.46875 0.375 -0.46875 0.984375q0 0.5625 0.53125 0.90625q0.53125 0.34375 1.796875 0.59375q1.265625 0.25 2.140625 0.5625q2.6875 0.984375 2.6875 3.421875q0 1.734375 -1.5 2.8125q-1.484375 1.0625 -3.84375 1.0625q-1.59375 0 -2.828125 -0.5625q-1.234375 -0.578125 -1.9375 -1.5625q-0.703125 -1.0 -0.703125 -2.140625l3.21875 0q0.046875 0.90625 0.65625 1.390625q0.625 0.46875 1.671875 0.46875q0.96875 0 1.46875 -0.359375q0.5 -0.375 0.5 -0.96875z" fill-rule="nonzero"/><path fill="#ffffff" d="m0.001092126 111.38255l32.992126 -65.98422l93.76378 0l32.992134 65.98422l-32.992134 65.98422l-93.76378 0z" fill-rule="evenodd"/><path stroke="#4285f4" stroke-width="3.0" stroke-linejoin="round" stroke-linecap="butt" d="m0.001092126 111.38255l32.992126 -65.98422l93.76378 0l32.992134 65.98422l-32.992134 65.98422l-93.76378 0z" fill-rule="evenodd"/><path fill="#4285f4" d="m32.353657 44.39939l91.65343 0l6.015869 6.015869l0 30.07862l0 0l-91.65343 0l-6.015869 -6.015869l0 -30.07862z" fill-rule="evenodd"/><path fill="#ffffff" d="m58.39924 64.91601l-0.8125 0.8125l0 2.578125l-2.25 0l0 -12.0l2.25 0l0 6.640625l0.4375 -0.5625l2.171875 -2.53125l2.703125 0l-3.046875 3.515625l3.3125 4.9375l-2.59375 0l-2.171875 -3.390625zm10.546875 2.53125q-0.84375 1.015625 -2.3125 1.015625q-1.359375 0 -2.078125 -0.78125q-0.71875 -0.78125 -0.734375 -2.296875l0 -5.53125l2.265625 0l0 5.453125q0 1.328125 1.203125 1.328125q1.140625 0 1.578125 -0.796875l0 -5.984375l2.265625 0l0 8.453125l-2.125 0l-0.0625 -0.859375zm11.5 -3.296875q0 2.03125 -0.875 3.171875q-0.859375 1.140625 -2.40625 1.140625q-1.375 0 -2.203125 -1.0625l-0.09375 0.90625l-2.03125 0l0 -12.0l2.25 0l0 4.296875q0.78125 -0.90625 2.0625 -0.90625q1.546875 0 2.421875 1.140625q0.875 1.125 0.875 3.1875l0 0.125zm-2.25 -0.15625q0 -1.28125 -0.40625 -1.875q-0.40625 -0.59375 -1.21875 -0.59375q-1.078125 0 -1.484375 0.890625l0 3.328125q0.421875 0.890625 1.5 0.890625q1.09375 0 1.4375 -1.078125q0.171875 -0.515625 0.171875 -1.5625zm7.5390625 4.46875q-1.859375 0 -3.03125 -1.140625q-1.171875 -1.140625 -1.171875 -3.046875l0 -0.21875q0 -1.265625 0.484375 -2.265625q0.5 -1.015625 1.40625 -1.546875q0.90625 -0.546875 2.0625 -0.546875q1.734375 0 2.71875 1.09375q1.0 1.09375 1.0 3.09375l0 0.921875l-5.375 0q0.109375 0.828125 0.65625 1.328125q0.546875 0.5 1.390625 0.5q1.3125 0 2.046875 -0.9375l1.109375 1.234375q-0.515625 0.71875 -1.390625 1.125q-0.859375 0.40625 -1.90625 0.40625zm-0.265625 -6.9375q-0.671875 0 -1.09375 0.453125q-0.40625 0.453125 -0.53125 1.296875l3.140625 0l0 -0.1875q-0.015625 -0.75 -0.40625 -1.15625q-0.390625 -0.40625 -1.109375 -0.40625zm7.3984375 6.78125l-2.265625 0l0 -12.0l2.265625 0l0 12.0zm5.7578125 0.15625q-1.859375 0 -3.03125 -1.140625q-1.171875 -1.140625 -1.171875 -3.046875l0 -0.21875q0 -1.265625 0.484375 -2.265625q0.5 -1.015625 1.40625 -1.546875q0.90625 -0.546875 2.0625 -0.546875q1.734375 0 2.71875 1.09375q1.0 1.09375 1.0 3.09375l0 0.921875l-5.375 0q0.109375 0.828125 0.65625 1.328125q0.546875 0.5 1.390625 0.5q1.3125 0 2.046875 -0.9375l1.109375 1.234375q-0.515625 0.71875 -1.390625 1.125q-0.859375 0.40625 -1.90625 0.40625zm-0.265625 -6.9375q-0.671875 0 -1.09375 0.453125q-0.40625 0.453125 -0.53125 1.296875l3.140625 0l0 -0.1875q-0.015625 -0.75 -0.40625 -1.15625q-0.390625 -0.40625 -1.109375 -0.40625zm7.7265625 -3.75l0 2.078125l1.4375 0l0 1.65625l-1.4375 0l0 4.21875q0 0.46875 0.171875 0.671875q0.1875 0.203125 0.6875 0.203125q0.375 0 0.671875 -0.0625l0 1.71875q-0.671875 0.203125 -1.375 0.203125q-2.375 0 -2.421875 -2.40625l0 -4.546875l-1.234375 0l0 -1.65625l1.234375 0l0 -2.078125l2.265625 0z" fill-rule="nonzero"/><path fill="#4285f4" d="m29.091003 140.93318l91.65343 0l6.0158615 6.015854l0 30.078629l0 0l-91.65342 0l-6.015869 -6.015869l0 -30.078613z" fill-rule="evenodd"/><path fill="#ffffff" d="m44.47643 161.4498l-0.8125 0.8125l0 2.578125l-2.25 0l0 -12.0l2.25 0l0 6.640625l0.4375 -0.5625l2.171875 -2.53125l2.703125 0l-3.046875 3.515625l3.3125 4.9375l-2.59375 0l-2.171875 -3.390625zm10.546875 2.53125q-0.84375 1.015625 -2.3125 1.015625q-1.359375 0 -2.078125 -0.78125q-0.71875 -0.78125 -0.734375 -2.296875l0 -5.53125l2.265625 0l0 5.453125q0 1.328125 1.203125 1.328125q1.140625 0 1.578125 -0.796875l0 -5.984375l2.265625 0l0 8.453125l-2.125 0l-0.0625 -0.859375zm11.500004 -3.296875q0 2.03125 -0.875 3.171875q-0.859375 1.140625 -2.4062538 1.140625q-1.375 0 -2.203125 -1.0625l-0.09375 0.90625l-2.03125 0l0 -12.0l2.25 0l0 4.296875q0.78125 -0.90625 2.0625 -0.90625q1.5468788 0 2.4218788 1.140625q0.875 1.125 0.875 3.1875l0 0.125zm-2.25 -0.15625q0 -1.28125 -0.4062538 -1.875q-0.40625 -0.59375 -1.21875 -0.59375q-1.078125 0 -1.484375 0.890625l0 3.328125q0.421875 0.890625 1.5 0.890625q1.09375 0 1.4375038 -1.078125q0.171875 -0.515625 0.171875 -1.5625zm7.5390625 4.46875q-1.859375 0 -3.03125 -1.140625q-1.171875 -1.140625 -1.171875 -3.046875l0 -0.21875q0 -1.265625 0.484375 -2.265625q0.5 -1.015625 1.40625 -1.546875q0.90625 -0.546875 2.0625 -0.546875q1.734375 0 2.71875 1.09375q1.0 1.09375 1.0 3.09375l0 0.921875l-5.375 0q0.109375 0.828125 0.65625 1.328125q0.546875 0.5 1.390625 0.5q1.3125 0 2.046875 -0.9375l1.109375 1.234375q-0.515625 0.71875 -1.390625 1.125q-0.859375 0.40625 -1.90625 0.40625zm-0.265625 -6.9375q-0.671875 0 -1.09375 0.453125q-0.40625 0.453125 -0.53125 1.296875l3.140625 0l0 -0.1875q-0.015625 -0.75 -0.40625 -1.15625q-0.390625 -0.40625 -1.109375 -0.40625zm12.6328125 2.625q0 1.953125 -0.890625 3.140625q-0.890625 1.171875 -2.390625 1.171875q-1.28125 0 -2.078125 -0.890625l0 3.984375l-2.25 0l0 -11.703125l2.09375 0l0.078125 0.828125q0.8125 -0.984375 2.140625 -0.984375q1.5625 0 2.421875 1.15625q0.875 1.15625 0.875 3.1875l0 0.109375zm-2.265625 -0.15625q0 -1.1875 -0.421875 -1.828125q-0.40625 -0.640625 -1.203125 -0.640625q-1.0625 0 -1.46875 0.8125l0 3.46875q0.421875 0.828125 1.484375 0.828125q1.609375 0 1.609375 -2.640625zm8.4140625 -2.03125q-0.46875 -0.0625 -0.8125 -0.0625q-1.28125 0 -1.6875 0.875l0 5.53125l-2.25 0l0 -8.453125l2.125 0l0.0625 1.0q0.6875 -1.15625 1.890625 -1.15625q0.375 0 0.703125 0.09375l-0.03125 2.171875zm0.4453125 2.03125q0 -1.25 0.484375 -2.234375q0.484375 -0.984375 1.390625 -1.515625q0.921875 -0.546875 2.125 -0.546875q1.7031174 0 2.7812424 1.046875q1.09375 1.046875 1.21875 2.84375l0.015625 0.578125q0 1.9375 -1.09375 3.125q-1.078125 1.171875 -2.9062424 1.171875q-1.828125 0 -2.921875 -1.171875q-1.09375 -1.171875 -1.09375 -3.1875l0 -0.109375zm2.265625 0.171875q0 1.203125 0.453125 1.84375q0.453125 0.625 1.296875 0.625q0.8125 0 1.265625 -0.625q0.46874237 -0.625 0.46874237 -2.015625q0 -1.171875 -0.46874237 -1.8125q-0.453125 -0.65625 -1.28125 -0.65625q-0.828125 0 -1.28125 0.640625q-0.453125 0.640625 -0.453125 2.0zm10.195305 -1.796875l1.421875 -2.515625l2.40625 0l-2.40625 4.140625l2.515625 4.3125l-2.421875 0l-1.515625 -2.65625l-1.5 2.65625l-2.421875 0l2.5 -4.3125l-2.390625 -4.140625l2.421875 0l1.390625 2.515625zm8.078125 2.734375l1.5625 -5.25l2.421875 0l-3.40625 9.765625l-0.1875 0.453125q-0.75 1.65625 -2.5 1.65625q-0.484375 0 -1.0 -0.15625l0 -1.703125l0.34375 0q0.640625 0 0.953125 -0.203125q0.328125 -0.1875 0.5 -0.640625l0.265625 -0.6875l-2.953125 -8.484375l2.421875 0l1.578125 5.25z" fill-rule="nonzero"/><path fill="#ffffff" d="m291.83533 169.69684l28.585663 -117.434235l115.738556 -52.263165l115.73859 52.263165l28.585632 117.434235l-80.094604 94.17529l-128.45923 0z" fill-rule="evenodd"/><path stroke="#4285f4" stroke-width="4.0" stroke-linejoin="round" stroke-linecap="butt" d="m291.83533 169.69684l28.585663 -117.434235l115.738556 -52.263165l115.73859 52.263165l28.585632 117.434235l-80.094604 94.17529l-128.45923 0z" fill-rule="evenodd"/><path fill="#4285f4" d="m368.2265 90.639786l128.70892 0l7.1540833 7.1540756l0 35.769493l0 0l-128.70892 0l-7.1540833 -7.154068l0 -35.7695z" fill-rule="evenodd"/><path stroke="#ffffff" stroke-width="2.0" stroke-linejoin="round" stroke-linecap="butt" d="m368.2265 90.639786l128.70892 0l7.1540833 7.1540756l0 35.769493l0 0l-128.70892 0l-7.1540833 -7.154068l0 -35.7695z" fill-rule="evenodd"/><path fill="#ffffff" d="m423.39023 119.20907q-2.171875 0 -3.53125 -1.328125q-1.359375 -1.34375 -1.359375 -3.546875l0 -0.265625q0 -1.484375 0.5625 -2.640625q0.578125 -1.171875 1.625 -1.796875q1.0625 -0.640625 2.40625 -0.640625q2.03125 0 3.1875 1.28125q1.15625 1.265625 1.15625 3.609375l0 1.0625l-6.265625 0q0.125 0.96875 0.765625 1.5625q0.640625 0.578125 1.625 0.578125q1.515625 0 2.375 -1.109375l1.296875 1.453125q-0.59375 0.84375 -1.609375 1.3125q-1.0 0.46875 -2.234375 0.46875zm-0.296875 -8.09375q-0.78125 0 -1.28125 0.53125q-0.484375 0.53125 -0.609375 1.515625l3.65625 0l0 -0.21875q-0.015625 -0.875 -0.484375 -1.34375q-0.453125 -0.484375 -1.28125 -0.484375zm8.9904785 -4.375l0 2.421875l1.6875 0l0 1.9375l-1.6875 0l0 4.921875q0 0.546875 0.203125 0.78125q0.21875 0.234375 0.8125 0.234375q0.4375 0 0.78125 -0.0625l0 2.0q-0.78125 0.234375 -1.59375 0.234375q-2.78125 0 -2.828125 -2.796875l0 -5.3125l-1.4375 0l0 -1.9375l1.4375 0l0 -2.421875l2.625 0zm7.256897 10.34375q0.734375 0 1.1875 -0.390625q0.453125 -0.40625 0.46875 -1.078125l2.46875 0q0 1.0 -0.546875 1.84375q-0.53125 0.828125 -1.46875 1.296875q-0.9375 0.453125 -2.0625 0.453125q-2.109375 0 -3.34375 -1.34375q-1.21875 -1.34375 -1.21875 -3.71875l0 -0.171875q0 -2.28125 1.21875 -3.625q1.21875 -1.359375 3.328125 -1.359375q1.84375 0 2.953125 1.046875q1.125 1.046875 1.140625 2.796875l-2.46875 0q-0.015625 -0.765625 -0.46875 -1.234375q-0.453125 -0.484375 -1.203125 -0.484375q-0.921875 0 -1.390625 0.671875q-0.46875 0.671875 -0.46875 2.171875l0 0.265625q0 1.53125 0.453125 2.203125q0.46875 0.65625 1.421875 0.65625zm5.213318 -3.0625q0 -2.3125 1.03125 -3.671875q1.046875 -1.359375 2.84375 -1.359375q1.4375 0 2.375 1.0625l0 -5.03125l2.640625 0l0 14.0l-2.375 0l-0.125 -1.046875q-0.984375 1.234375 -2.53125 1.234375q-1.75 0 -2.8125 -1.375q-1.046875 -1.375 -1.046875 -3.8125zm2.640625 0.1875q0 1.390625 0.484375 2.125q0.484375 0.734375 1.40625 0.734375q1.21875 0 1.71875 -1.03125l0 -3.890625q-0.5 -1.015625 -1.703125 -1.015625q-1.90625 0 -1.90625 3.078125z" fill-rule="nonzero"/><path fill="#4285f4" d="m368.2265 140.83485l127.85367 0l8.009338 8.009308l0 40.04561l0 0l-127.8537 0l-8.009308 -8.009323l0 -40.045593z" fill-rule="evenodd"/><path stroke="#ffffff" stroke-width="2.0" stroke-linejoin="round" stroke-linecap="butt" d="m368.2265 140.83485l127.85367 0l8.009338 8.009308l0 40.04561l0 0l-127.8537 0l-8.009308 -8.009323l0 -40.045593z" fill-rule="evenodd"/><path fill="#ffffff" d="m401.18564 169.06355q0 -0.484375 -0.484375 -0.765625q-0.46875 -0.28125 -1.515625 -0.5q-3.53125 -0.734375 -3.53125 -2.984375q0 -1.3125 1.09375 -2.1875q1.09375 -0.875 2.84375 -0.875q1.875 0 3.0 0.890625q1.125 0.875 1.125 2.28125l-2.625 0q0 -0.5625 -0.375 -0.921875q-0.359375 -0.375 -1.125 -0.375q-0.671875 0 -1.03125 0.296875q-0.359375 0.296875 -0.359375 0.765625q0 0.4375 0.40625 0.703125q0.421875 0.265625 1.40625 0.46875q0.984375 0.1875 1.65625 0.4375q2.078125 0.765625 2.078125 2.65625q0 1.34375 -1.15625 2.1875q-1.15625 0.828125 -2.984375 0.828125q-1.234375 0 -2.203125 -0.4375q-0.953125 -0.453125 -1.5 -1.21875q-0.546875 -0.765625 -0.546875 -1.671875l2.484375 0q0.046875 0.703125 0.53125 1.078125q0.484375 0.375 1.28125 0.375q0.765625 0 1.140625 -0.28125q0.390625 -0.296875 0.390625 -0.75zm8.35791 0.78125q0.734375 0 1.1875 -0.390625q0.453125 -0.40625 0.46875 -1.078125l2.46875 0q0 1.0 -0.546875 1.84375q-0.53125 0.828125 -1.46875 1.296875q-0.9375 0.453125 -2.0625 0.453125q-2.109375 0 -3.34375 -1.34375q-1.21875 -1.34375 -1.21875 -3.71875l0 -0.171875q0 -2.28125 1.21875 -3.625q1.21875 -1.359375 3.328125 -1.359375q1.84375 0 2.953125 1.046875q1.125 1.046875 1.140625 2.796875l-2.46875 0q-0.015625 -0.765625 -0.46875 -1.234375q-0.453125 -0.484375 -1.203125 -0.484375q-0.921875 0 -1.390625 0.671875q-0.46875 0.671875 -0.46875 2.171875l0 0.265625q0 1.53125 0.453125 2.203125q0.46875 0.65625 1.421875 0.65625zm8.197693 -6.84375q1.046875 -1.25 2.640625 -1.25q3.203125 0 3.25 3.71875l0 6.3125l-2.640625 0l0 -6.234375q0 -0.859375 -0.359375 -1.25q-0.359375 -0.40625 -1.21875 -0.40625q-1.15625 0 -1.671875 0.890625l0 7.0l-2.625 0l0 -14.0l2.625 0l0 5.21875zm12.408234 8.96875q-2.171875 0 -3.53125 -1.328125q-1.359375 -1.34375 -1.359375 -3.546875l0 -0.265625q0 -1.484375 0.5625 -2.640625q0.578125 -1.171875 1.625 -1.796875q1.0625 -0.640625 2.40625 -0.640625q2.03125 0 3.1875 1.28125q1.15625 1.265625 1.15625 3.609375l0 1.0625l-6.265625 0q0.125 0.96875 0.765625 1.5625q0.640625 0.578125 1.625 0.578125q1.515625 0 2.375 -1.109375l1.296875 1.453125q-0.59375 0.84375 -1.609375 1.3125q-1.0 0.46875 -2.234375 0.46875zm-0.296875 -8.09375q-0.78125 0 -1.28125 0.53125q-0.484375 0.53125 -0.609375 1.515625l3.65625 0l0 -0.21875q-0.015625 -0.875 -0.484375 -1.34375q-0.453125 -0.484375 -1.28125 -0.484375zm5.4279785 2.90625q0 -2.3125 1.03125 -3.671875q1.046875 -1.359375 2.84375 -1.359375q1.4375 0 2.375 1.0625l0 -5.03125l2.640625 0l0 14.0l-2.375 0l-0.125 -1.046875q-0.984375 1.234375 -2.53125 1.234375q-1.75 0 -2.8125 -1.375q-1.046875 -1.375 -1.046875 -3.8125zm2.640625 0.1875q0 1.390625 0.484375 2.125q0.484375 0.734375 1.40625 0.734375q1.21875 0 1.71875 -1.03125l0 -3.890625q-0.5 -1.015625 -1.703125 -1.015625q-1.90625 0 -1.90625 3.078125zm14.19986 3.8125q-0.984375 1.1875 -2.703125 1.1875q-1.59375 0 -2.421875 -0.90625q-0.828125 -0.921875 -0.84375 -2.671875l0 -6.46875l2.625 0l0 6.375q0 1.53125 1.40625 1.53125q1.34375 0 1.84375 -0.921875l0 -6.984375l2.640625 0l0 9.859375l-2.484375 0l-0.0625 -1.0zm7.3144836 1.0l-2.65625 0l0 -14.0l2.65625 0l0 14.0zm6.6964417 0.1875q-2.171875 0 -3.53125 -1.328125q-1.359375 -1.34375 -1.359375 -3.546875l0 -0.265625q0 -1.484375 0.5625 -2.640625q0.578125 -1.171875 1.625 -1.796875q1.0625 -0.640625 2.40625 -0.640625q2.03125 0 3.1875 1.28125q1.15625 1.265625 1.15625 3.609375l0 1.0625l-6.265625 0q0.125 0.96875 0.765625 1.5625q0.640625 0.578125 1.625 0.578125q1.515625 0 2.375 -1.109375l1.296875 1.453125q-0.59375 0.84375 -1.609375 1.3125q-1.0 0.46875 -2.234375 0.46875zm-0.296875 -8.09375q-0.78125 0 -1.28125 0.53125q-0.484375 0.53125 -0.609375 1.515625l3.65625 0l0 -0.21875q-0.015625 -0.875 -0.484375 -1.34375q-0.453125 -0.484375 -1.28125 -0.484375zm11.3811035 0.515625q-0.53125 -0.0625 -0.9375 -0.0625q-1.5 0 -1.96875 1.0l0 6.453125l-2.625 0l0 -9.859375l2.484375 0l0.078125 1.171875q0.78125 -1.34375 2.1875 -1.34375q0.4375 0 0.828125 0.109375l-0.046875 2.53125z" fill-rule="nonzero"/><path fill="#4285f4" d="m368.2265 196.16125l127.85367 0l8.009338 8.009323l0 40.045593l0 0l-127.8537 0l-8.009308 -8.009308l0 -40.04561z" fill-rule="evenodd"/><path stroke="#ffffff" stroke-width="2.0" stroke-linejoin="round" stroke-linecap="butt" d="m368.2265 196.16125l127.85367 0l8.009338 8.009323l0 40.045593l0 0l-127.8537 0l-8.009308 -8.009308l0 -40.04561z" fill-rule="evenodd"/><path fill="#ffffff" d="m396.0525 225.17122q0.734375 0 1.1875 -0.390625q0.453125 -0.40625 0.46875 -1.078125l2.46875 0q0 1.0 -0.546875 1.84375q-0.53125 0.828125 -1.46875 1.296875q-0.9375 0.453125 -2.0625 0.453125q-2.109375 0 -3.34375 -1.34375q-1.21875 -1.34375 -1.21875 -3.71875l0 -0.171875q0 -2.28125 1.21875 -3.625q1.21875 -1.359375 3.328125 -1.359375q1.84375 0 2.953125 1.046875q1.125 1.046875 1.140625 2.796875l-2.46875 0q-0.015625 -0.765625 -0.46875 -1.234375q-0.453125 -0.484375 -1.203125 -0.484375q-0.921875 0 -1.390625 0.671875q-0.46875 0.671875 -0.46875 2.171875l0 0.265625q0 1.53125 0.453125 2.203125q0.46875 0.65625 1.421875 0.65625zm5.213318 -3.078125q0 -1.46875 0.5625 -2.609375q0.578125 -1.15625 1.640625 -1.78125q1.0625 -0.625 2.453125 -0.625q2.0 0 3.265625 1.21875q1.265625 1.21875 1.40625 3.3125l0.015625 0.671875q0 2.265625 -1.265625 3.640625q-1.265625 1.375 -3.40625 1.375q-2.125 0 -3.40625 -1.359375q-1.265625 -1.375 -1.265625 -3.734375l0 -0.109375zm2.640625 0.1875q0 1.40625 0.53125 2.15625q0.53125 0.734375 1.515625 0.734375q0.953125 0 1.484375 -0.734375q0.546875 -0.734375 0.546875 -2.34375q0 -1.375 -0.546875 -2.125q-0.53125 -0.765625 -1.515625 -0.765625q-0.953125 0 -1.484375 0.75q-0.53125 0.75 -0.53125 2.328125zm10.751923 -5.03125l0.078125 1.140625q1.0625 -1.3125 2.828125 -1.3125q1.578125 0 2.34375 0.921875q0.765625 0.90625 0.78125 2.734375l0 6.375l-2.640625 0l0 -6.296875q0 -0.84375 -0.359375 -1.21875q-0.359375 -0.375 -1.21875 -0.375q-1.109375 0 -1.65625 0.9375l0 6.953125l-2.640625 0l0 -9.859375l2.484375 0zm11.167328 -2.421875l0 2.421875l1.6875 0l0 1.9375l-1.6875 0l0 4.921875q0 0.546875 0.203125 0.78125q0.21875 0.234375 0.8125 0.234375q0.4375 0 0.78125 -0.0625l0 2.0q-0.78125 0.234375 -1.59375 0.234375q-2.78125 0 -2.828125 -2.796875l0 -5.3125l-1.4375 0l0 -1.9375l1.4375 0l0 -2.421875l2.625 0zm8.694397 4.890625q-0.53125 -0.0625 -0.9375 -0.0625q-1.5 0 -1.96875 1.0l0 6.453125l-2.625 0l0 -9.859375l2.484375 0l0.078125 1.171875q0.78125 -1.34375 2.1875 -1.34375q0.4375 0 0.828125 0.109375l-0.046875 2.53125zm0.5235596 2.375q0 -1.46875 0.5625 -2.609375q0.578125 -1.15625 1.640625 -1.78125q1.0625 -0.625 2.453125 -0.625q2.0 0 3.265625 1.21875q1.265625 1.21875 1.40625 3.3125l0.015625 0.671875q0 2.265625 -1.265625 3.640625q-1.265625 1.375 -3.40625 1.375q-2.125 0 -3.40625 -1.359375q-1.265625 -1.375 -1.265625 -3.734375l0 -0.109375zm2.640625 0.1875q0 1.40625 0.53125 2.15625q0.53125 0.734375 1.515625 0.734375q0.953125 0 1.484375 -0.734375q0.546875 -0.734375 0.546875 -2.34375q0 -1.375 -0.546875 -2.125q-0.53125 -0.765625 -1.515625 -0.765625q-0.953125 0 -1.484375 0.75q-0.53125 0.75 -0.53125 2.328125zm11.111298 4.828125l-2.65625 0l0 -14.0l2.65625 0l0 14.0zm4.9464417 0l-2.65625 0l0 -14.0l2.65625 0l0 14.0zm6.696472 0.1875q-2.171875 0 -3.53125 -1.328125q-1.359375 -1.34375 -1.359375 -3.546875l0 -0.265625q0 -1.484375 0.5625 -2.640625q0.578125 -1.171875 1.625 -1.796875q1.0625 -0.640625 2.40625 -0.640625q2.03125 0 3.1875 1.28125q1.15625 1.265625 1.15625 3.609375l0 1.0625l-6.265625 0q0.125 0.96875 0.765625 1.5625q0.640625 0.578125 1.625 0.578125q1.515625 0 2.375 -1.109375l1.296875 1.453125q-0.59375 0.84375 -1.609375 1.3125q-1.0 0.46875 -2.234375 0.46875zm-0.296875 -8.09375q-0.78125 0 -1.28125 0.53125q-0.484375 0.53125 -0.609375 1.515625l3.65625 0l0 -0.21875q-0.015625 -0.875 -0.484375 -1.34375q-0.453125 -0.484375 -1.28125 -0.484375zm11.381073 0.515625q-0.53125 -0.0625 -0.9375 -0.0625q-1.5 0 -1.96875 1.0l0 6.453125l-2.625 0l0 -9.859375l2.484375 0l0.078125 1.171875q0.78125 -1.34375 2.1875 -1.34375q0.4375 0 0.828125 0.109375l-0.046875 2.53125zm6.6016846 4.671875q0 -0.484375 -0.484375 -0.765625q-0.46875 -0.28125 -1.515625 -0.5q-3.53125 -0.734375 -3.53125 -2.984375q0 -1.3125 1.09375 -2.1875q1.09375 -0.875 2.84375 -0.875q1.875 0 3.0 0.890625q1.125 0.875 1.125 2.28125l-2.625 0q0 -0.5625 -0.375 -0.921875q-0.359375 -0.375 -1.125 -0.375q-0.671875 0 -1.03125 0.296875q-0.359375 0.296875 -0.359375 0.765625q0 0.4375 0.40625 0.703125q0.421875 0.265625 1.40625 0.46875q0.984375 0.1875 1.65625 0.4375q2.078125 0.765625 2.078125 2.65625q0 1.34375 -1.15625 2.1875q-1.15625 0.828125 -2.984375 0.828125q-1.234375 0 -2.203125 -0.4375q-0.953125 -0.453125 -1.5 -1.21875q-0.546875 -0.765625 -0.546875 -1.671875l2.484375 0q0.046875 0.703125 0.53125 1.078125q0.484375 0.375 1.28125 0.375q0.765625 0 1.140625 -0.28125q0.390625 -0.296875 0.390625 -0.75z" fill-rule="nonzero"/><path fill="#4285f4" d="m368.2265 40.44473l128.70892 0l7.1540833 7.154068l0 35.769497l0 0l-128.70892 0l-7.1540833 -7.154068l0 -35.769497z" fill-rule="evenodd"/><path stroke="#ffffff" stroke-width="2.0" stroke-linejoin="round" stroke-linecap="butt" d="m368.2265 40.44473l128.70892 0l7.1540833 7.154068l0 35.769497l0 0l-128.70892 0l-7.1540833 -7.154068l0 -35.769497z" fill-rule="evenodd"/><path fill="#ffffff" d="m403.72867 68.82651q-0.171875 -0.359375 -0.265625 -0.890625q-0.953125 1.078125 -2.484375 1.078125q-1.453125 0 -2.40625 -0.84375q-0.9375 -0.84375 -0.9375 -2.109375q0 -1.578125 1.15625 -2.40625q1.15625 -0.84375 3.359375 -0.84375l1.203125 0l0 -0.578125q0 -0.671875 -0.359375 -1.078125q-0.34375 -0.421875 -1.09375 -0.421875q-0.65625 0 -1.046875 0.328125q-0.375 0.3125 -0.375 0.875l-2.625 0q0 -0.859375 0.515625 -1.578125q0.53125 -0.734375 1.5 -1.140625q0.96875 -0.421875 2.171875 -0.421875q1.8125 0 2.875 0.921875q1.078125 0.90625 1.078125 2.5625l0 4.265625q0.015625 1.40625 0.390625 2.125l0 0.15625l-2.65625 0zm-2.171875 -1.828125q0.578125 0 1.0625 -0.25q0.5 -0.265625 0.734375 -0.703125l0 -1.703125l-0.984375 0q-1.96875 0 -2.09375 1.375l-0.015625 0.15625q0 0.484375 0.34375 0.8125q0.34375 0.3125 0.953125 0.3125zm15.345978 -3.015625q0 2.28125 -1.046875 3.65625q-1.03125 1.375 -2.78125 1.375q-1.5 0 -2.421875 -1.046875l0 4.65625l-2.625 0l0 -13.65625l2.4375 0l0.09375 0.96875q0.953125 -1.140625 2.5 -1.140625q1.8125 0 2.828125 1.34375q1.015625 1.34375 1.015625 3.71875l0 0.125zm-2.640625 -0.1875q0 -1.375 -0.484375 -2.109375q-0.484375 -0.75 -1.421875 -0.75q-1.234375 0 -1.703125 0.9375l0 4.03125q0.484375 0.984375 1.71875 0.984375q1.890625 0 1.890625 -3.09375zm7.0501404 5.03125l-2.65625 0l0 -9.859375l2.65625 0l0 9.859375zm-2.796875 -12.40625q0 -0.59375 0.390625 -0.96875q0.390625 -0.390625 1.078125 -0.390625q0.671875 0 1.0625 0.390625q0.40625 0.375 0.40625 0.96875q0 0.59375 -0.40625 0.984375q-0.390625 0.375 -1.0625 0.375q-0.671875 0 -1.078125 -0.375q-0.390625 -0.390625 -0.390625 -0.984375zm10.290192 9.6875q0 -0.484375 -0.484375 -0.765625q-0.46875 -0.28125 -1.515625 -0.5q-3.53125 -0.734375 -3.53125 -2.984375q0 -1.3125 1.09375 -2.1875q1.09375 -0.875 2.84375 -0.875q1.875 0 3.0 0.890625q1.125 0.875 1.125 2.28125l-2.625 0q0 -0.5625 -0.375 -0.921875q-0.359375 -0.375 -1.125 -0.375q-0.671875 0 -1.03125 0.296875q-0.359375 0.296875 -0.359375 0.765625q0 0.4375 0.40625 0.703125q0.421875 0.265625 1.40625 0.46875q0.984375 0.1875 1.65625 0.4375q2.078125 0.765625 2.078125 2.65625q0 1.34375 -1.15625 2.1875q-1.15625 0.828125 -2.984375 0.828125q-1.234375 0 -2.203125 -0.4375q-0.953125 -0.453125 -1.5 -1.21875q-0.546875 -0.765625 -0.546875 -1.671875l2.484375 0q0.046875 0.703125 0.53125 1.078125q0.484375 0.375 1.28125 0.375q0.765625 0 1.140625 -0.28125q0.390625 -0.296875 0.390625 -0.75zm8.795441 2.90625q-2.171875 0 -3.53125 -1.328125q-1.359375 -1.34375 -1.359375 -3.546875l0 -0.265625q0 -1.484375 0.5625 -2.640625q0.578125 -1.171875 1.625 -1.796875q1.0625 -0.640625 2.40625 -0.640625q2.03125 0 3.1875 1.28125q1.15625 1.265625 1.15625 3.609375l0 1.0625l-6.265625 0q0.125 0.96875 0.765625 1.5625q0.640625 0.578125 1.625 0.578125q1.515625 0 2.375 -1.109375l1.296875 1.453125q-0.59375 0.84375 -1.609375 1.3125q-1.0 0.46875 -2.234375 0.46875zm-0.296875 -8.09375q-0.78125 0 -1.28125 0.53125q-0.484375 0.53125 -0.609375 1.515625l3.65625 0l0 -0.21875q-0.015625 -0.875 -0.484375 -1.34375q-0.453125 -0.484375 -1.28125 -0.484375zm11.381073 0.515625q-0.53125 -0.0625 -0.9375 -0.0625q-1.5 0 -1.96875 1.0l0 6.453125l-2.625 0l0 -9.859375l2.484375 0l0.078125 1.171875q0.78125 -1.34375 2.1875 -1.34375q0.4375 0 0.828125 0.109375l-0.046875 2.53125zm5.125122 4.171875l1.828125 -6.640625l2.75 0l-3.328125 9.859375l-2.515625 0l-3.3125 -9.859375l2.75 0l1.828125 6.640625zm10.153595 3.40625q-2.171875 0 -3.53125 -1.328125q-1.359375 -1.34375 -1.359375 -3.546875l0 -0.265625q0 -1.484375 0.5625 -2.640625q0.578125 -1.171875 1.625 -1.796875q1.0625 -0.640625 2.40625 -0.640625q2.03125 0 3.1875 1.28125q1.15625 1.265625 1.15625 3.609375l0 1.0625l-6.265625 0q0.125 0.96875 0.765625 1.5625q0.640625 0.578125 1.625 0.578125q1.515625 0 2.375 -1.109375l1.296875 1.453125q-0.59375 0.84375 -1.609375 1.3125q-1.0 0.46875 -2.234375 0.46875zm-0.296875 -8.09375q-0.78125 0 -1.28125 0.53125q-0.484375 0.53125 -0.609375 1.515625l3.65625 0l0 -0.21875q-0.015625 -0.875 -0.484375 -1.34375q-0.453125 -0.484375 -1.28125 -0.484375zm11.381073 0.515625q-0.53125 -0.0625 -0.9375 -0.0625q-1.5 0 -1.96875 1.0l0 6.453125l-2.625 0l0 -9.859375l2.484375 0l0.078125 1.171875q0.78125 -1.34375 2.1875 -1.34375q0.4375 0 0.828125 0.109375l-0.046875 2.53125z" fill-rule="nonzero"/><path fill="#000000" fill-opacity="0.0" d="m504.0895 61.90651c12.4999695 0 24.992096 12.551186 24.99997 25.102364c0.007873535 12.551178 -12.468506 25.102364 -24.936981 25.102364" fill-rule="evenodd"/><path stroke="#666666" stroke-width="2.0" stroke-linejoin="round" stroke-linecap="butt" d="m504.08948 61.906513c12.5 0 24.992126 12.551182 25.0 25.102352c0.003967285 6.2755966 -3.1131592 12.551186 -7.789856 17.257874c-1.1691895 1.1766739 -2.435791 2.2552948 -3.7755127 3.2113419c-0.3348999 0.23900604 -0.6744385 0.4703598 -1.0181274 0.6936722c-0.17181396 0.11164856 -0.34472656 0.22129059 -0.5186157 0.3288803l-0.3300171 0.1991272" fill-rule="evenodd"/><path fill="#666666" stroke="#666666" stroke-width="2.0" stroke-linecap="butt" d="m514.7182 105.53261l-7.7625732 5.7474213l9.640869 0.5868988z" fill-rule="evenodd"/><path fill="#000000" fill-opacity="0.0" d="m504.0895 220.18872c12.4999695 0 24.992096 -27.02362 24.99997 -54.04724c0.007873535 -27.02362 -12.468506 -54.04725 -24.936981 -54.04725" fill-rule="evenodd"/><path stroke="#666666" stroke-width="2.0" stroke-linejoin="round" stroke-linecap="butt" d="m504.08948 220.1887c12.5 0 24.992126 -27.02362 25.0 -54.047226c0.003967285 -13.51181 -3.1131592 -27.02362 -7.789856 -37.157486c-1.1691895 -2.5334625 -2.435791 -4.8558044 -3.7755127 -6.9142456c-0.66986084 -1.0292206 -1.3579712 -1.9924622 -2.0613403 -2.883133c-0.17584229 -0.22267151 -0.3526001 -0.4407959 -0.5303345 -0.6542969c-0.08880615 -0.10674286 -0.17785645 -0.21233368 -0.26715088 -0.31674957l-0.11437988 -0.13191986" fill-rule="evenodd"/><path fill="#666666" stroke="#666666" stroke-width="2.0" stroke-linecap="butt" d="m516.1997 115.22109l-9.513641 -1.6675339l6.215973 7.392662z" fill-rule="evenodd"/><path fill="#000000" fill-opacity="0.0" d="m368.2265 164.8623c-12.5 0 -25.007874 -13.18898 -25.0 -26.377945c0.007873535 -13.18898 12.531494 -26.37796 25.062988 -26.37796" fill-rule="evenodd"/><path stroke="#666666" stroke-width="2.0" stroke-linejoin="round" stroke-linecap="butt" d="m368.2265 164.8623c-12.5 0 -25.007874 -13.18898 -25.0 -26.377945c0.0039367676 -6.5944977 3.1368103 -13.18898 7.835144 -18.13485c1.1745605 -1.2364655 2.4470215 -2.369896 3.7928467 -3.374527c0.3364563 -0.2511444 0.67749023 -0.49425507 1.0227661 -0.72891235c0.17260742 -0.11733246 0.34628296 -0.23254395 0.5209656 -0.3455963l0.42163086 -0.26608276" fill-rule="evenodd"/><path fill="#666666" stroke="#666666" stroke-width="2.0" stroke-linecap="butt" d="m357.79105 118.79186l7.7038574 -5.8258667l-9.646301 -0.4890747z" fill-rule="evenodd"/></g></svg>