<svg version="1.1" viewBox="0.0 0.0 532.2440944881889 388.5721784776903" fill="none" stroke="none" stroke-linecap="square" stroke-miterlimit="10" xmlns:xlink="http://www.w3.org/1999/xlink" xmlns="http://www.w3.org/2000/svg"><clipPath id="p.0"><path d="m0 0l532.2441 0l0 388.57217l-532.2441 0l0 -388.57217z" clip-rule="nonzero"/></clipPath><g clip-path="url(#p.0)"><path fill="#000000" fill-opacity="0.0" d="m0 0l532.2441 0l0 388.57217l-532.2441 0z" fill-rule="evenodd"/><path fill="#000000" fill-opacity="0.0" d="m182.65231 8.020885l0 0c0 -4.4299626 3.5912018 -8.021157 8.021164 -8.021157l102.3199 0c2.1273193 0 4.1675415 0.84508383 5.671814 2.3493426c1.504242 1.5042589 2.3493347 3.544472 2.3493347 5.671815l0 32.083668c0 4.429966 -3.5911865 8.02116 -8.021149 8.02116l-102.3199 0l0 0c-4.429962 0 -8.021164 -3.5911942 -8.021164 -8.02116z" fill-rule="evenodd"/><path stroke="#4285f4" stroke-width="1.0" stroke-linejoin="round" stroke-linecap="butt" d="m182.65231 8.020885l0 0c0 -4.4299626 3.5912018 -8.021157 8.021164 -8.021157l102.3199 0c2.1273193 0 4.1675415 0.84508383 5.671814 2.3493426c1.504242 1.5042589 2.3493347 3.544472 2.3493347 5.671815l0 32.083668c0 4.429966 -3.5911865 8.02116 -8.021149 8.02116l-102.3199 0l0 0c-4.429962 0 -8.021164 -3.5911942 -8.021164 -8.02116z" fill-rule="evenodd"/><path fill="#4285f4" d="m214.94475 27.180843q-0.3125 2.71875 -2.0 4.1875q-1.671875 1.46875 -4.46875 1.46875q-3.015625 0 -4.84375 -2.171875q-1.828125 -2.171875 -1.828125 -5.796875l0 -1.640625q0 -2.375 0.84375 -4.171875q0.859375 -1.8125 2.421875 -2.78125q1.5625 -0.96875 3.609375 -0.96875q2.71875 0 4.359375 1.515625q1.640625 1.515625 1.90625 4.203125l-2.265625 0q-0.28125 -2.046875 -1.265625 -2.953125q-0.984375 -0.921875 -2.734375 -0.921875q-2.15625 0 -3.390625 1.59375q-1.21875 1.59375 -1.21875 4.546875l0 1.640625q0 2.78125 1.15625 4.421875q1.171875 1.640625 3.25 1.640625q1.875 0 2.875 -0.84375q1.0 -0.859375 1.328125 -2.96875l2.265625 0zm2.1523438 -1.03125q0 -1.875 0.734375 -3.359375q0.734375 -1.484375 2.03125 -2.296875q1.3125 -0.8125 3.0 -0.8125q2.578125 0 4.171875 1.796875q1.609375 1.796875 1.609375 4.765625l0 0.15625q0 1.859375 -0.71875 3.328125q-0.703125 1.46875 -2.015625 2.296875q-1.3125 0.8125 -3.03125 0.8125q-2.578125 0 -4.1875 -1.796875q-1.59375 -1.796875 -1.59375 -4.75l0 -0.140625zm2.1875 0.25q0 2.109375 0.96875 3.390625q0.984375 1.28125 2.625 1.28125q1.65625 0 2.625 -1.296875q0.96875 -1.296875 0.96875 -3.625q0 -2.09375 -0.984375 -3.390625q-0.984375 -1.296875 -2.625 -1.296875q-1.609375 0 -2.59375 1.28125q-0.984375 1.28125 -0.984375 3.65625zm14.125 -6.484375l0.078125 1.59375q1.453125 -1.828125 3.796875 -1.828125q4.015625 0 4.046875 4.546875l0 8.375l-2.15625 0l0 -8.390625q-0.015625 -1.375 -0.640625 -2.03125q-0.609375 -0.65625 -1.90625 -0.65625q-1.0625 0 -1.859375 0.5625q-0.796875 0.5625 -1.234375 1.484375l0 9.03125l-2.171875 0l0 -12.6875l2.046875 0zm14.1328125 -3.0625l0 3.0625l2.375 0l0 1.6875l-2.375 0l0 7.859375q0 0.765625 0.3125 1.140625q0.328125 0.375 1.09375 0.375q0.375 0 1.03125 -0.140625l0 1.765625q-0.859375 0.234375 -1.671875 0.234375q-1.453125 0 -2.1875 -0.875q-0.734375 -0.890625 -0.734375 -2.5l0 -7.859375l-2.3125 0l0 -1.6875l2.3125 0l0 -3.0625l2.15625 0zm10.167984 15.984375q-2.5781403 0 -4.2031403 -1.6875q-1.609375 -1.703125 -1.609375 -4.53125l0 -0.40625q0 -1.890625 0.71875 -3.359375q0.71875 -1.484375 2.015625 -2.328125q1.296875 -0.84375 2.8125153 -0.84375q2.46875 0 3.828125 1.640625q1.375 1.625 1.375 4.65625l0 0.90625l-8.57814 0q0.046875 1.875 1.09375 3.03125q1.0468903 1.15625 2.6562653 1.15625q1.15625 0 1.953125 -0.46875q0.796875 -0.46875 1.390625 -1.25l1.328125 1.03125q-1.59375 2.453125 -4.78125 2.453125zm-0.265625 -11.375q-1.3125 0 -2.2031403 0.96875q-0.890625 0.953125 -1.109375 2.671875l6.3593903 0l0 -0.171875q-0.09375 -1.640625 -0.890625 -2.546875q-0.796875 -0.921875 -2.15625 -0.921875zm11.964844 3.09375l2.8125 -4.640625l2.53125 0l-4.140625 6.28125l4.28125 6.40625l-2.515625 0l-2.921875 -4.75l-2.9375 4.75l-2.515625 0l4.28125 -6.40625l-4.15625 -6.28125l2.515625 0l2.765625 4.640625zm10.582031 -7.703125l0 3.0625l2.375 0l0 1.6875l-2.375 0l0 7.859375q0 0.765625 0.3125 1.140625q0.328125 0.375 1.09375 0.375q0.375 0 1.03125 -0.140625l0 1.765625q-0.859375 0.234375 -1.671875 0.234375q-1.453125 0 -2.1875 -0.875q-0.734375 -0.890625 -0.734375 -2.5l0 -7.859375l-2.3125 0l0 -1.6875l2.3125 0l0 -3.0625l2.15625 0z" fill-rule="nonzero"/><path fill="#000000" fill-opacity="0.0" d="m182.65231 143.82947l0 0c0 -4.429962 3.5912018 -8.021149 8.021164 -8.021149l102.3199 0c2.1273193 0 4.1675415 0.8450775 5.671814 2.3493347c1.504242 1.5042572 2.3493347 3.5444794 2.3493347 5.671814l0 32.08368c0 4.429962 -3.5911865 8.021149 -8.021149 8.021149l-102.3199 0l0 0c-4.429962 0 -8.021164 -3.5911865 -8.021164 -8.021149z" fill-rule="evenodd"/><path stroke="#34a853" stroke-width="1.0" stroke-linejoin="round" stroke-linecap="butt" d="m182.65231 143.82947l0 0c0 -4.429962 3.5912018 -8.021149 8.021164 -8.021149l102.3199 0c2.1273193 0 4.1675415 0.8450775 5.671814 2.3493347c1.504242 1.5042572 2.3493347 3.5444794 2.3493347 5.671814l0 32.08368c0 4.429962 -3.5911865 8.021149 -8.021149 8.021149l-102.3199 0l0 0c-4.429962 0 -8.021164 -3.5911865 -8.021164 -8.021149z" fill-rule="evenodd"/><path fill="#34a853" d="m231.4467 151.3488l0 11.59375q-0.015625 2.421875 -1.53125 3.96875q-1.5 1.53125 -4.078125 1.71875l-0.59375 0.015625q-2.796875 0 -4.46875 -1.515625q-1.65625 -1.515625 -1.6875 -4.15625l0 -11.625l2.234375 0l0 11.546875q0 1.859375 1.015625 2.890625q1.015625 1.015625 2.90625 1.015625q1.90625 0 2.921875 -1.015625q1.015625 -1.015625 1.015625 -2.875l0 -11.5625l2.265625 0zm10.59375 13.703125q0 -0.890625 -0.671875 -1.375q-0.65625 -0.484375 -2.3125 -0.828125q-1.640625 -0.359375 -2.609375 -0.84375q-0.96875 -0.5 -1.4375 -1.171875q-0.453125 -0.6875 -0.453125 -1.625q0 -1.5625 1.3125 -2.640625q1.328125 -1.078125 3.375 -1.078125q2.15625 0 3.5 1.125q1.34375 1.109375 1.34375 2.84375l-2.1875 0q0 -0.890625 -0.75 -1.53125q-0.75 -0.65625 -1.90625 -0.65625q-1.1875 0 -1.859375 0.515625q-0.65625 0.515625 -0.65625 1.359375q0 0.78125 0.609375 1.1875q0.625 0.390625 2.25 0.75q1.625 0.359375 2.625 0.875q1.015625 0.5 1.5 1.21875q0.484375 0.703125 0.484375 1.71875q0 1.703125 -1.359375 2.734375q-1.359375 1.015625 -3.515625 1.015625q-1.53125 0 -2.703125 -0.53125q-1.171875 -0.546875 -1.84375 -1.515625q-0.65625 -0.96875 -0.65625 -2.09375l2.171875 0q0.0625 1.09375 0.875 1.734375q0.8125 0.640625 2.15625 0.640625q1.21875 0 1.96875 -0.5q0.75 -0.5 0.75 -1.328125zm10.25 3.59375q-2.578125 0 -4.203125 -1.6875q-1.609375 -1.703125 -1.609375 -4.53125l0 -0.40625q0 -1.890625 0.71875 -3.359375q0.71875 -1.484375 2.015625 -2.328125q1.296875 -0.84375 2.8125 -0.84375q2.46875 0 3.828125 1.640625q1.3750153 1.625 1.3750153 4.65625l0 0.90625l-8.57814 0q0.046875 1.875 1.09375 3.03125q1.046875 1.15625 2.65625 1.15625q1.15625 0 1.953125 -0.46875q0.796875 -0.46875 1.390625 -1.25l1.3281403 1.03125q-1.5937653 2.453125 -4.7812653 2.453125zm-0.265625 -11.375q-1.3125 0 -2.203125 0.96875q-0.890625 0.953125 -1.109375 2.671875l6.359375 0l0 -0.171875q-0.09375 -1.640625 -0.890625 -2.546875q-0.796875 -0.921875 -2.15625 -0.921875zm13.839859 0.40625q-0.484375 -0.078125 -1.0625 -0.078125q-2.125 0 -2.890625 1.8125l0 9.0l-2.171875 0l0 -12.6875l2.109375 0l0.03125 1.46875q1.078125 -1.703125 3.03125 -1.703125q0.625 0 0.953125 0.171875l0 2.015625z" fill-rule="nonzero"/><path fill="#000000" fill-opacity="0.0" d="m6.56693 143.82947l0 0c0 -4.429962 3.591195 -8.021149 8.021158 -8.021149l102.319885 0c2.1273422 0 4.167557 0.8450775 5.671814 2.3493347c1.5042648 1.5042572 2.34935 3.5444794 2.34935 5.671814l0 32.08368c0 4.429962 -3.5912018 8.021149 -8.021164 8.021149l-102.319885 0l0 0c-4.429963 0 -8.021158 -3.5911865 -8.021158 -8.021149z" fill-rule="evenodd"/><path stroke="#ff9800" stroke-width="1.0" stroke-linejoin="round" stroke-linecap="butt" d="m6.56693 143.82947l0 0c0 -4.429962 3.591195 -8.021149 8.021158 -8.021149l102.319885 0c2.1273422 0 4.167557 0.8450775 5.671814 2.3493347c1.5042648 1.5042572 2.34935 3.5444794 2.34935 5.671814l0 32.08368c0 4.429962 -3.5912018 8.021149 -8.021164 8.021149l-102.319885 0l0 0c-4.429963 0 -8.021158 -3.5911865 -8.021158 -8.021149z" fill-rule="evenodd"/><path fill="#ff9800" d="m42.416004 162.98943q-0.3125 2.71875 -2.0 4.1875q-1.671875 1.46875 -4.46875 1.46875q-3.015625 0 -4.843752 -2.171875q-1.828125 -2.171875 -1.828125 -5.796875l0 -1.640625q0 -2.375 0.84375 -4.171875q0.859375 -1.8125 2.421877 -2.78125q1.5625 -0.96875 3.609375 -0.96875q2.71875 0 4.359375 1.515625q1.640625 1.515625 1.90625 4.203125l-2.265625 0q-0.28125 -2.046875 -1.265625 -2.953125q-0.984375 -0.921875 -2.734375 -0.921875q-2.15625 0 -3.390625 1.59375q-1.2187519 1.59375 -1.2187519 4.546875l0 1.640625q0 2.78125 1.1562519 4.421875q1.171875 1.640625 3.25 1.640625q1.875 0 2.875 -0.84375q1.0 -0.859375 1.328125 -2.96875l2.265625 0zm5.0898438 5.421875l-2.171875 0l0 -18.0l2.171875 0l0 18.0zm11.292969 -1.25q-1.265625 1.484375 -3.71875 1.484375q-2.015625 0 -3.078125 -1.171875q-1.0625 -1.1875 -1.078125 -3.5l0 -8.25l2.171875 0l0 8.203125q0 2.875 2.34375 2.875q2.484375 0 3.296875 -1.84375l0 -9.234375l2.171875 0l0 12.6875l-2.0625 0l-0.046875 -1.25zm12.792965 -2.109375q0 -0.890625 -0.671875 -1.375q-0.65625 -0.484375 -2.3125 -0.828125q-1.640625 -0.359375 -2.609375 -0.84375q-0.96875 -0.5 -1.4375 -1.171875q-0.453125 -0.6875 -0.453125 -1.625q0 -1.5625 1.3125 -2.640625q1.328125 -1.078125 3.375 -1.078125q2.15625 0 3.5 1.125q1.34375 1.109375 1.34375 2.84375l-2.1875 0q0 -0.890625 -0.75 -1.53125q-0.75 -0.65625 -1.90625 -0.65625q-1.1875 0 -1.859375 0.515625q-0.65625 0.515625 -0.65625 1.359375q0 0.78125 0.609375 1.1875q0.625 0.390625 2.25 0.75q1.625 0.359375 2.625 0.875q1.015625 0.5 1.5 1.21875q0.484375 0.703125 0.484375 1.71875q0 1.703125 -1.359375 2.734375q-1.359375 1.015625 -3.515625 1.015625q-1.53125 0 -2.703125 -0.53125q-1.171875 -0.546875 -1.84375 -1.515625q-0.6562462 -0.96875 -0.6562462 -2.09375l2.1718712 0q0.0625 1.09375 0.875 1.734375q0.8125 0.640625 2.15625 0.640625q1.21875 0 1.96875 -0.5q0.75 -0.5 0.75 -1.328125zm7.921875 -12.390625l0 3.0625l2.375 0l0 1.6875l-2.375 0l0 7.859375q0 0.765625 0.3125 1.140625q0.328125 0.375 1.09375 0.375q0.375 0 1.03125 -0.140625l0 1.765625q-0.859375 0.234375 -1.671875 0.234375q-1.453125 0 -2.1875 -0.875q-0.734375 -0.890625 -0.734375 -2.5l0 -7.859375l-2.3125 0l0 -1.6875l2.3125 0l0 -3.0625l2.15625 0zm10.167969 15.984375q-2.578125 0 -4.203125 -1.6875q-1.609375 -1.703125 -1.609375 -4.53125l0 -0.40625q0 -1.890625 0.71875 -3.359375q0.71875 -1.484375 2.015625 -2.328125q1.296875 -0.84375 2.8125 -0.84375q2.46875 0 3.828125 1.640625q1.375 1.625 1.375 4.65625l0 0.90625l-8.578125 0q0.046875 1.875 1.09375 3.03125q1.046875 1.15625 2.65625 1.15625q1.15625 0 1.953125 -0.46875q0.796875 -0.46875 1.390625 -1.25l1.328125 1.03125q-1.59375 2.453125 -4.78125 2.453125zm-0.265625 -11.375q-1.3125 0 -2.203125 0.96875q-0.890625 0.953125 -1.109375 2.671875l6.359375 0l0 -0.171875q-0.09375 -1.640625 -0.890625 -2.546875q-0.796875 -0.921875 -2.15625 -0.921875zm13.839844 0.40625q-0.484375 -0.078125 -1.0625 -0.078125q-2.125 0 -2.890625 1.8125l0 9.0l-2.171875 0l0 -12.6875l2.109375 0l0.03125 1.46875q1.078125 -1.703125 3.03125 -1.703125q0.625 0 0.953125 0.171875l0 2.015625z" fill-rule="nonzero"/><path fill="#000000" fill-opacity="0.0" d="m360.09784 143.82947l0 0c0 -4.429962 3.591217 -8.021149 8.021179 -8.021149l139.73721 0c2.1273193 0 4.167572 0.8450775 5.6717834 2.3493347c1.5042725 1.5042572 2.3493652 3.5444794 2.3493652 5.671814l0 32.08368c0 4.429962 -3.5911865 8.021149 -8.021149 8.021149l-139.73721 0c-4.429962 0 -8.021179 -3.5911865 -8.021179 -8.021149z" fill-rule="evenodd"/><path stroke="#ea4335" stroke-width="1.0" stroke-linejoin="round" stroke-linecap="butt" d="m360.09784 143.82947l0 0c0 -4.429962 3.591217 -8.021149 8.021179 -8.021149l139.73721 0c2.1273193 0 4.167572 0.8450775 5.6717834 2.3493347c1.5042725 1.5042572 2.3493652 3.5444794 2.3493652 5.671814l0 32.08368c0 4.429962 -3.5911865 8.021149 -8.021149 8.021149l-139.73721 0c-4.429962 0 -8.021179 -3.5911865 -8.021179 -8.021149z" fill-rule="evenodd"/><path fill="#ea4335" d="m389.0384 168.4113l-2.265625 0l-8.578125 -13.15625l0 13.15625l-2.265625 0l0 -17.0625l2.265625 0l8.609375 13.203125l0 -13.203125l2.234375 0l0 17.0625zm11.484375 0q-0.1875 -0.375 -0.296875 -1.34375q-1.515625 1.578125 -3.609375 1.578125q-1.875 0 -3.078125 -1.0625q-1.203125 -1.0625 -1.203125 -2.6875q0 -1.984375 1.5 -3.078125q1.515625 -1.09375 4.234375 -1.09375l2.109375 0l0 -1.0q0 -1.140625 -0.6875 -1.8125q-0.671875 -0.671875 -1.984375 -0.671875q-1.171875 0 -1.953125 0.59375q-0.78125 0.578125 -0.78125 1.40625l-2.1875 0q0 -0.9375 0.671875 -1.828125q0.6875 -0.890625 1.828125 -1.40625q1.15625 -0.515625 2.546875 -0.515625q2.1875 0 3.421875 1.109375q1.25 1.09375 1.296875 3.015625l0 5.828125q0 1.75 0.453125 2.78125l0 0.1875l-2.28125 0zm-3.59375 -1.65625q1.015625 0 1.921875 -0.515625q0.921875 -0.53125 1.328125 -1.375l0 -2.609375l-1.6875 0q-3.984375 0 -3.984375 2.328125q0 1.03125 0.671875 1.609375q0.6875 0.5625 1.75 0.5625zm10.8671875 -11.03125l0.046875 1.40625q1.40625 -1.640625 3.765625 -1.640625q2.65625 0 3.625 2.046875q0.625 -0.921875 1.640625 -1.484375q1.015625 -0.5625 2.40625 -0.5625q4.171875 0 4.234375 4.421875l0 8.5l-2.171875 0l0 -8.375q0 -1.359375 -0.625 -2.03125q-0.609375 -0.671875 -2.078125 -0.671875q-1.203125 0 -2.0 0.71875q-0.796875 0.71875 -0.921875 1.9375l0 8.421875l-2.1875 0l0 -8.3125q0 -2.765625 -2.703125 -2.765625q-2.140625 0 -2.921875 1.8125l0 9.265625l-2.171875 0l0 -12.6875l2.0625 0zm24.253906 12.921875q-2.578125 0 -4.203125 -1.6875q-1.609375 -1.703125 -1.609375 -4.53125l0 -0.40625q0 -1.890625 0.71875 -3.359375q0.71875 -1.484375 2.015625 -2.328125q1.296875 -0.84375 2.8125 -0.84375q2.46875 0 3.828125 1.640625q1.375 1.625 1.375 4.65625l0 0.90625l-8.578125 0q0.046875 1.875 1.09375 3.03125q1.046875 1.15625 2.65625 1.15625q1.15625 0 1.953125 -0.46875q0.796875 -0.46875 1.390625 -1.25l1.328125 1.03125q-1.59375 2.453125 -4.78125 2.453125zm-0.265625 -11.375q-1.3125 0 -2.203125 0.96875q-0.890625 0.953125 -1.109375 2.671875l6.359375 0l0 -0.171875q-0.09375 -1.640625 -0.890625 -2.546875q-0.796875 -0.921875 -2.15625 -0.921875zm15.105469 7.78125q0 -0.890625 -0.671875 -1.375q-0.65625 -0.484375 -2.3125 -0.828125q-1.640625 -0.359375 -2.609375 -0.84375q-0.96875 -0.5 -1.4375 -1.171875q-0.453125 -0.6875 -0.453125 -1.625q0 -1.5625 1.3125 -2.640625q1.328125 -1.078125 3.375 -1.078125q2.15625 0 3.5 1.125q1.34375 1.109375 1.34375 2.84375l-2.1875 0q0 -0.890625 -0.75 -1.53125q-0.75 -0.65625 -1.90625 -0.65625q-1.1875 0 -1.859375 0.515625q-0.65625 0.515625 -0.65625 1.359375q0 0.78125 0.609375 1.1875q0.625 0.390625 2.25 0.75q1.625 0.359375 2.625 0.875q1.015625 0.5 1.5 1.21875q0.484375 0.703125 0.484375 1.71875q0 1.703125 -1.359375 2.734375q-1.359375 1.015625 -3.515625 1.015625q-1.53125 0 -2.703125 -0.53125q-1.171875 -0.546875 -1.84375 -1.515625q-0.65625 -0.96875 -0.65625 -2.09375l2.171875 0q0.0625 1.09375 0.875 1.734375q0.8125 0.640625 2.15625 0.640625q1.21875 0 1.96875 -0.5q0.75 -0.5 0.75 -1.328125zm15.703125 -2.84375q0 2.890625 -1.328125 4.671875q-1.328125 1.765625 -3.59375 1.765625q-2.296875 0 -3.625 -1.46875l0 6.109375l-2.171875 0l0 -17.5625l1.984375 0l0.109375 1.40625q1.3125 -1.640625 3.671875 -1.640625q2.28125 0 3.609375 1.734375q1.34375 1.71875 1.34375 4.78125l0 0.203125zm-2.171875 -0.25q0 -2.140625 -0.921875 -3.375q-0.90625 -1.25 -2.5 -1.25q-1.96875 0 -2.953125 1.75l0 6.0625q0.96875 1.734375 2.96875 1.734375q1.5625 0 2.484375 -1.234375q0.921875 -1.25 0.921875 -3.6875zm12.746094 6.453125q-0.1875 -0.375 -0.296875 -1.34375q-1.515625 1.578125 -3.609375 1.578125q-1.875 0 -3.078125 -1.0625q-1.203125 -1.0625 -1.203125 -2.6875q0 -1.984375 1.5 -3.078125q1.515625 -1.09375 4.234375 -1.09375l2.109375 0l0 -1.0q0 -1.140625 -0.6875 -1.8125q-0.671875 -0.671875 -1.984375 -0.671875q-1.171875 0 -1.953125 0.59375q-0.78125 0.578125 -0.78125 1.40625l-2.1875 0q0 -0.9375 0.671875 -1.828125q0.6875 -0.890625 1.828125 -1.40625q1.15625 -0.515625 2.546875 -0.515625q2.1875 0 3.421875 1.109375q1.25 1.09375 1.296875 3.015625l0 5.828125q0 1.75 0.453125 2.78125l0 0.1875l-2.28125 0zm-3.59375 -1.65625q1.015625 0 1.921875 -0.515625q0.921875 -0.53125 1.328125 -1.375l0 -2.609375l-1.6875 0q-3.984375 0 -3.984375 2.328125q0 1.03125 0.671875 1.609375q0.6875 0.5625 1.75 0.5625zm13.9140625 0.125q1.15625 0 2.015625 -0.703125q0.875 -0.703125 0.96875 -1.765625l2.046875 0q-0.0625 1.09375 -0.75 2.078125q-0.6875 0.984375 -1.84375 1.578125q-1.15625 0.578125 -2.4375 0.578125q-2.59375 0 -4.125 -1.71875q-1.53125 -1.734375 -1.53125 -4.734375l0 -0.375q0 -1.84375 0.671875 -3.28125q0.6875 -1.453125 1.953125 -2.25q1.28125 -0.796875 3.015625 -0.796875q2.125 0 3.53125 1.28125q1.421875 1.28125 1.515625 3.3125l-2.046875 0q-0.09375 -1.21875 -0.9375 -2.015625q-0.828125 -0.796875 -2.0625 -0.796875q-1.65625 0 -2.5625 1.203125q-0.90625 1.1875 -0.90625 3.4375l0 0.40625q0 2.1875 0.890625 3.375q0.90625 1.1875 2.59375 1.1875zm12.734375 1.765625q-2.578125 0 -4.203125 -1.6875q-1.609375 -1.703125 -1.609375 -4.53125l0 -0.40625q0 -1.890625 0.71875 -3.359375q0.71875 -1.484375 2.015625 -2.328125q1.296875 -0.84375 2.8125 -0.84375q2.46875 0 3.828125 1.640625q1.375 1.625 1.375 4.65625l0 0.90625l-8.578125 0q0.046875 1.875 1.09375 3.03125q1.046875 1.15625 2.65625 1.15625q1.15625 0 1.953125 -0.46875q0.796875 -0.46875 1.390625 -1.25l1.328125 1.03125q-1.59375 2.453125 -4.78125 2.453125zm-0.265625 -11.375q-1.3125 0 -2.203125 0.96875q-0.890625 0.953125 -1.109375 2.671875l6.359375 0l0 -0.171875q-0.09375 -1.640625 -0.890625 -2.546875q-0.796875 -0.921875 -2.15625 -0.921875z" fill-rule="nonzero"/><path fill="#000000" fill-opacity="0.0" d="m241.83342 48.125713l0 43.84164l196.15749 0l0 43.84339" fill-rule="evenodd"/><path stroke="#4285f4" stroke-width="2.0" stroke-linejoin="round" stroke-linecap="butt" d="m241.83342 48.125713l0 43.84164l196.15749 0l0 31.843391" fill-rule="evenodd"/><path fill="#4285f4" stroke="#4285f4" stroke-width="2.0" stroke-linecap="butt" d="m434.68744 123.810745l3.3034668 9.076202l3.3034668 -9.076202z" fill-rule="evenodd"/><path fill="#000000" fill-opacity="0.0" d="m241.83342 48.125713l0 43.84164l-176.09448 0l0 43.84339" fill-rule="evenodd"/><path stroke="#4285f4" stroke-width="2.0" stroke-linejoin="round" stroke-linecap="butt" d="m241.83342 48.125713l0 43.84164l-176.09448 0l0 31.843391" fill-rule="evenodd"/><path fill="#4285f4" stroke="#4285f4" stroke-width="2.0" stroke-linecap="butt" d="m62.435467 123.810745l3.303463 9.076202l3.3034668 -9.076202z" fill-rule="evenodd"/><path fill="#000000" fill-opacity="0.0" d="m241.83342 48.125713l0 43.84164l0.06298828 0l0 43.84339" fill-rule="evenodd"/><path stroke="#4285f4" stroke-width="2.0" stroke-linejoin="round" stroke-linecap="butt" d="m241.83342 48.125713l0 43.84164l0.06298828 0l0 31.843391" fill-rule="evenodd"/><path fill="#4285f4" stroke="#4285f4" stroke-width="2.0" stroke-linecap="butt" d="m238.59294 123.810745l3.3034668 9.076202l3.3034668 -9.076202z" fill-rule="evenodd"/><path fill="#000000" fill-opacity="0.0" d="m182.6838 318.0342l0 0c0 -4.429962 3.5912018 -8.021179 8.021164 -8.021179l102.3199 0c2.1273193 0 4.1675415 0.8450928 5.671814 2.3493652c1.504242 1.504242 2.3493347 3.544464 2.3493347 5.671814l0 32.08365c0 4.429962 -3.5911865 8.021179 -8.021149 8.021179l-102.3199 0l0 0c-4.429962 0 -8.021164 -3.591217 -8.021164 -8.021179z" fill-rule="evenodd"/><path stroke="#34a853" stroke-width="1.0" stroke-linejoin="round" stroke-linecap="butt" stroke-dasharray="4.0,3.0" d="m182.6838 318.0342l0 0c0 -4.429962 3.5912018 -8.021179 8.021164 -8.021179l102.3199 0c2.1273193 0 4.1675415 0.8450928 5.671814 2.3493652c1.504242 1.504242 2.3493347 3.544464 2.3493347 5.671814l0 32.08365c0 4.429962 -3.5911865 8.021179 -8.021149 8.021179l-102.3199 0l0 0c-4.429962 0 -8.021164 -3.591217 -8.021164 -8.021179z" fill-rule="evenodd"/><path fill="#34a853" d="m206.83757 336.1629q0 -2.953125 1.375 -4.703125q1.375 -1.765625 3.625 -1.765625q2.328125 0 3.625 1.640625l0.109375 -1.40625l1.984375 0l0 12.375q0 2.46875 -1.46875 3.890625q-1.453125 1.421875 -3.921875 1.421875q-1.359375 0 -2.671875 -0.59375q-1.3125 -0.578125 -2.015625 -1.609375l1.125 -1.296875q1.40625 1.71875 3.421875 1.71875q1.578125 0 2.453125 -0.890625q0.890625 -0.890625 0.890625 -2.5l0 -1.09375q-1.296875 1.5 -3.546875 1.5q-2.234375 0 -3.609375 -1.796875q-1.375 -1.796875 -1.375 -4.890625zm2.1875 0.25q0 2.140625 0.875 3.375q0.875 1.21875 2.453125 1.21875q2.0625 0 3.015625 -1.859375l0 -5.796875q-1.0 -1.8125 -2.984375 -1.8125q-1.578125 0 -2.46875 1.234375q-0.890625 1.234375 -0.890625 3.640625zm16.886719 4.671875q1.15625 0 2.015625 -0.703125q0.875 -0.703125 0.96875 -1.765625l2.046875 0q-0.0625 1.09375 -0.75 2.078125q-0.6875 0.984375 -1.84375 1.578125q-1.15625 0.578125 -2.4375 0.578125q-2.59375 0 -4.125 -1.71875q-1.53125 -1.734375 -1.53125 -4.734375l0 -0.375q0 -1.84375 0.671875 -3.28125q0.6875 -1.453125 1.953125 -2.25q1.28125 -0.796875 3.015625 -0.796875q2.125 0 3.53125 1.28125q1.421875 1.28125 1.515625 3.3125l-2.046875 0q-0.09375 -1.21875 -0.9375 -2.015625q-0.828125 -0.796875 -2.0625 -0.796875q-1.65625 0 -2.5625 1.203125q-0.90625 1.1875 -0.90625 3.4375l0 0.40625q0 2.1875 0.890625 3.375q0.90625 1.1875 2.59375 1.1875zm9.828125 1.53125l-2.171875 0l0 -18.0l2.171875 0l0 18.0zm2.8867188 -6.453125q0 -1.875 0.734375 -3.359375q0.734375 -1.484375 2.03125 -2.296875q1.3125 -0.8125 3.0 -0.8125q2.578125 0 4.171875 1.796875q1.609375 1.796875 1.609375 4.765625l0 0.15625q0 1.859375 -0.71875 3.328125q-0.703125 1.46875 -2.015625 2.296875q-1.3125 0.8125 -3.03125 0.8125q-2.578125 0 -4.1875 -1.796875q-1.59375 -1.796875 -1.59375 -4.75l0 -0.140625zm2.1875 0.25q0 2.109375 0.96875 3.390625q0.984375 1.28125 2.625 1.28125q1.65625 0 2.625 -1.296875q0.96875 -1.296875 0.96875 -3.625q0 -2.09375 -0.984375 -3.390625q-0.984375 -1.296875 -2.625 -1.296875q-1.609375 0 -2.59375 1.28125q-0.984375 1.28125 -0.984375 3.65625zm19.906265 4.953125q-1.265625 1.484375 -3.71875 1.484375q-2.0156403 0 -3.0781403 -1.171875q-1.0625 -1.1875 -1.078125 -3.5l0 -8.25l2.171875 0l0 8.203125q0 2.875 2.3437653 2.875q2.484375 0 3.296875 -1.84375l0 -9.234375l2.171875 0l0 12.6875l-2.0625 0l-0.046875 -1.25zm4.8710938 -5.203125q0 -2.90625 1.375 -4.6875q1.390625 -1.78125 3.640625 -1.78125q2.21875 0 3.515625 1.53125l0 -6.609375l2.171875 0l0 18.0l-1.984375 0l-0.109375 -1.359375q-1.296875 1.59375 -3.625 1.59375q-2.203125 0 -3.59375 -1.796875q-1.390625 -1.8125 -1.390625 -4.71875l0 -0.171875zm2.171875 0.25q0 2.15625 0.890625 3.375q0.890625 1.21875 2.46875 1.21875q2.0625 0 3.0 -1.84375l0 -5.828125q-0.96875 -1.796875 -2.984375 -1.796875q-1.59375 0 -2.484375 1.234375q-0.890625 1.234375 -0.890625 3.640625z" fill-rule="nonzero"/><path fill="#000000" fill-opacity="0.0" d="m241.83342 183.9343l0 63.039368l0.06298828 0l0 63.039368" fill-rule="evenodd"/><path stroke="#34a853" stroke-width="1.0" stroke-linejoin="round" stroke-linecap="butt" stroke-dasharray="4.0,3.0" d="m241.83342 183.9343l0 63.039383l0.06298828 0l0 57.039352" fill-rule="evenodd"/><path fill="#34a853" stroke="#34a853" stroke-width="1.0" stroke-linecap="butt" d="m240.24467 304.01303l1.6517334 4.5381165l1.6517334 -4.5381165z" fill-rule="evenodd"/><path fill="#000000" fill-opacity="0.0" d="m150.82668 247.00525l182.07875 0l0 39.93701l-182.07875 0z" fill-rule="evenodd"/><path fill="#ffffff" d="m163.35138 255.97375l157.02933 0l0 22.399994l-157.02933 0l0 -22.399994z" fill-rule="nonzero"/><path fill="#000000" fill-opacity="0.0" d="m163.35138 256.5857l157.02933 0l0 21.862793l-157.02933 0l0 -21.862793z" fill-rule="nonzero"/><path fill="#34a853" d="m165.75763 268.03436l5.703125 2.296875l0 1.78125l-7.453125 -3.453125l0 -1.328125l7.453125 -3.4375l0 1.78125l-5.703125 2.359375zm9.482986 0l5.703125 2.296875l0 1.78125l-7.453125 -3.453125l0 -1.328125l7.453125 -3.4375l0 1.78125l-5.703125 2.359375zm19.054626 5.859375q-0.140625 -0.296875 -0.234375 -1.03125q-1.171875 1.21875 -2.8125 1.21875q-1.453125 0 -2.390625 -0.828125q-0.921875 -0.828125 -0.921875 -2.09375q0 -1.53125 1.15625 -2.375q1.171875 -0.859375 3.296875 -0.859375l1.640625 0l0 -0.78125q0 -0.890625 -0.53125 -1.40625q-0.515625 -0.53125 -1.546875 -0.53125q-0.90625 0 -1.515625 0.46875q-0.609375 0.453125 -0.609375 1.09375l-1.703125 0q0 -0.734375 0.515625 -1.421875q0.53125 -0.6875 1.421875 -1.078125q0.90625 -0.40625 1.984375 -0.40625q1.703125 0 2.671875 0.859375q0.96875 0.84375 1.0 2.328125l0 4.53125q0 1.359375 0.34375 2.171875l0 0.140625l-1.765625 0zm-2.796875 -1.28125q0.796875 0 1.5 -0.40625q0.71875 -0.421875 1.03125 -1.078125l0 -2.015625l-1.3125 0q-3.109375 0 -3.109375 1.8125q0 0.796875 0.53125 1.25q0.53125 0.4375 1.359375 0.4375zm12.944855 0.3125q-0.984375 1.15625 -2.890625 1.15625q-1.578125 0 -2.40625 -0.921875q-0.8125 -0.921875 -0.828125 -2.703125l0 -6.421875l1.6875 0l0 6.375q0 2.234375 1.828125 2.234375q1.921875 0 2.5625 -1.4375l0 -7.171875l1.6875 0l0 9.859375l-1.609375 0l-0.03125 -0.96875zm6.487747 -11.28125l0 2.390625l1.84375 0l0 1.3125l-1.84375 0l0 6.109375q0 0.59375 0.234375 0.890625q0.25 0.296875 0.84375 0.296875q0.296875 0 0.8125 -0.109375l0 1.359375q-0.671875 0.1875 -1.296875 0.1875q-1.125 0 -1.703125 -0.6875q-0.578125 -0.6875 -0.578125 -1.9375l0 -6.109375l-1.796875 0l0 -1.3125l1.796875 0l0 -2.390625l1.6875 0zm5.4848785 3.59375q1.125 -1.375 2.921875 -1.375q3.125 0 3.15625 3.515625l0 6.515625l-1.6875 0l0 -6.515625q-0.015625 -1.078125 -0.5 -1.578125q-0.46875 -0.515625 -1.484375 -0.515625q-0.8125 0 -1.4375 0.4375q-0.609375 0.4375 -0.96875 1.15625l0 7.015625l-1.671875 0l0 -14.0l1.671875 0l0 5.34375zm12.103638 3.703125l-4.4375 0l0 -1.375l4.4375 0l0 1.375zm9.959366 0.140625q0 2.25 -1.03125 3.625q-1.015625 1.375 -2.78125 1.375q-1.796875 0 -2.828125 -1.140625l0 4.75l-1.671875 0l0 -13.65625l1.53125 0l0.078125 1.09375q1.03125 -1.265625 2.859375 -1.265625q1.78125 0 2.8125 1.34375q1.03125 1.328125 1.03125 3.71875l0 0.15625zm-1.671875 -0.203125q0 -1.65625 -0.71875 -2.625q-0.703125 -0.96875 -1.953125 -0.96875q-1.53125 0 -2.296875 1.359375l0 4.703125q0.765625 1.359375 2.328125 1.359375q1.203125 0 1.921875 -0.953125q0.71875 -0.96875 0.71875 -2.875zm8.591812 -3.328125q-0.390625 -0.0625 -0.84375 -0.0625q-1.65625 0 -2.25 1.40625l0 7.0l-1.671875 0l0 -9.859375l1.640625 0l0.015625 1.140625q0.828125 -1.3125 2.359375 -1.3125q0.484375 0 0.75 0.125l0 1.5625zm0.9118347 3.328125q0 -1.453125 0.5625 -2.609375q0.578125 -1.15625 1.59375 -1.78125q1.015625 -0.625 2.3125 -0.625q2.015625 0 3.25 1.390625q1.25 1.390625 1.25 3.703125l0 0.125q0 1.4375 -0.546875 2.578125q-0.546875 1.140625 -1.578125 1.78125q-1.015625 0.640625 -2.359375 0.640625q-2.0 0 -3.25 -1.390625q-1.234375 -1.40625 -1.234375 -3.703125l0 -0.109375zm1.6875 0.203125q0 1.640625 0.765625 2.640625q0.765625 0.984375 2.03125 0.984375q1.296875 0 2.046875 -1.0q0.75 -1.015625 0.75 -2.828125q0 -1.625 -0.765625 -2.625q-0.765625 -1.015625 -2.046875 -1.015625q-1.25 0 -2.015625 1.0q-0.765625 0.984375 -0.765625 2.84375zm12.518814 2.53125l2.4375 -7.578125l1.71875 0l-3.53125 9.859375l-1.28125 0l-3.578125 -9.859375l1.71875 0l2.515625 7.578125zm7.614746 2.28125l-1.6875 0l0 -9.859375l1.6875 0l0 9.859375zm-1.828125 -12.46875q0 -0.40625 0.25 -0.6875q0.25 -0.296875 0.734375 -0.296875q0.5 0 0.75 0.296875q0.265625 0.28125 0.265625 0.6875q0 0.40625 -0.265625 0.6875q-0.25 0.265625 -0.75 0.265625q-0.484375 0 -0.734375 -0.265625q-0.25 -0.28125 -0.25 -0.6875zm4.10553 7.453125q0 -2.265625 1.078125 -3.640625q1.078125 -1.375 2.8125 -1.375q1.734375 0 2.75 1.171875l0 -5.140625l1.6875 0l0 14.0l-1.546875 0l-0.09375 -1.0625q-1.0 1.25 -2.8125 1.25q-1.703125 0 -2.796875 -1.40625q-1.078125 -1.40625 -1.078125 -3.65625l0 -0.140625zm1.6875 0.203125q0 1.671875 0.6875 2.625q0.703125 0.9375 1.921875 0.9375q1.609375 0 2.34375 -1.4375l0 -4.53125q-0.765625 -1.390625 -2.328125 -1.390625q-1.234375 0 -1.9375 0.953125q-0.6875 0.953125 -0.6875 2.84375zm13.333984 5.0q-2.0 0 -3.265625 -1.3125q-1.25 -1.328125 -1.25 -3.53125l0 -0.3125q0 -1.46875 0.5625 -2.609375q0.5625 -1.15625 1.5625 -1.796875q1.015625 -0.65625 2.1875 -0.65625q1.921875 0 2.984375 1.265625q1.0625 1.265625 1.0625 3.625l0 0.6875l-6.671875 0q0.03125 1.46875 0.84375 2.375q0.828125 0.890625 2.078125 0.890625q0.890625 0 1.515625 -0.359375q0.625 -0.375 1.078125 -0.96875l1.03125 0.796875q-1.234375 1.90625 -3.71875 1.90625zm-0.203125 -8.84375q-1.015625 0 -1.71875 0.75q-0.6875 0.734375 -0.84375 2.078125l4.9375 0l0 -0.125q-0.078125 -1.28125 -0.703125 -1.984375q-0.609375 -0.71875 -1.671875 -0.71875zm10.774414 0.3125q-0.390625 -0.0625 -0.84375 -0.0625q-1.65625 0 -2.25 1.40625l0 7.0l-1.671875 0l0 -9.859375l1.640625 0l0.015625 1.140625q0.828125 -1.3125 2.359375 -1.3125q0.484375 0 0.75 0.125l0 1.5625zm12.1188965 2.421875l-6.015625 -2.359375l0 -1.734375l7.78125 3.453125l0 1.328125l-7.78125 3.453125l0 -1.75l6.015625 -2.390625zm9.747162 0l-6.015625 -2.359375l0 -1.734375l7.78125 3.453125l0 1.328125l-7.78125 3.453125l0 -1.75l6.015625 -2.390625z" fill-rule="nonzero"/><path fill="#010000" fill-opacity="0.0" d="m320.3807 257.00473l0 0l0 21.45288l0 0l0 -21.45288z" fill-rule="nonzero"/></g></svg>